# Tiled2Unity generated file. Do not modify by hand.
# Wavefront file for 'Jungle1_mesh_0009.obj'

# Vertices (Count = 64)
v -4.48 -9.28 0
v -4.8 -9.28 0
v -4.8 -8.96 0
v -4.48 -8.96 0
v -4.8 -9.28 0
v -5.12 -9.28 0
v -5.12 -8.96 0
v -4.8 -8.96 0
v -4.48 -9.599999 0
v -4.8 -9.599999 0
v -4.8 -9.28 0
v -4.48 -9.28 0
v -4.8 -9.599999 0
v -5.12 -9.599999 0
v -5.12 -9.28 0
v -4.8 -9.28 0
v -5.12 -9.599999 0
v -5.44 -9.599999 0
v -5.44 -9.28 0
v -5.12 -9.28 0
v -4.8 -9.92 0
v -5.12 -9.92 0
v -5.12 -9.599999 0
v -4.8 -9.599999 0
v -5.12 -9.92 0
v -5.44 -9.92 0
v -5.44 -9.599999 0
v -5.12 -9.599999 0
v -6.4 -10.88 0
v -6.72 -10.88 0
v -6.72 -10.56 0
v -6.4 -10.56 0
v -6.72 -10.88 0
v -7.04 -10.88 0
v -7.04 -10.56 0
v -6.72 -10.56 0
v -5.44 -11.2 0
v -5.76 -11.2 0
v -5.76 -10.88 0
v -5.44 -10.88 0
v -5.76 -11.2 0
v -6.08 -11.2 0
v -6.08 -10.88 0
v -5.76 -10.88 0
v -6.08 -11.2 0
v -6.4 -11.2 0
v -6.4 -10.88 0
v -6.08 -10.88 0
v -6.4 -11.2 0
v -6.72 -11.2 0
v -6.72 -10.88 0
v -6.4 -10.88 0
v -6.72 -11.2 0
v -7.04 -11.2 0
v -7.04 -10.88 0
v -6.72 -10.88 0
v -5.44 -11.52 0
v -5.76 -11.52 0
v -5.76 -11.2 0
v -5.44 -11.2 0
v -5.76 -11.52 0
v -6.08 -11.52 0
v -6.08 -11.2 0
v -5.76 -11.2 0

# Texture cooridinates (Count = 13)
vt 0.4 0.4545454
vt 0.45 0.4545454
vt 0.45 0.5454545
vt 0.4 0.5454545
vt 0.5 0.4545454
vt 0.5 0.5454545
vt 0.4 0.3636364
vt 0.45 0.3636364
vt 0.5 0.3636364
vt 0.3 0.09090906
vt 0.35 0.09090906
vt 0.35 0.1818182
vt 0.3 0.1818182

# Normal
vn 0 0 -1

# Mesh description
g Jungle1_mesh_0009

# Faces
f 1/1/1 2/2/1 3/3/1 4/4/1
f 5/2/1 6/5/1 7/6/1 8/3/1
f 9/7/1 10/8/1 11/2/1 12/1/1
f 13/1/1 14/2/1 15/3/1 16/4/1
f 17/2/1 18/5/1 19/6/1 20/3/1
f 21/7/1 22/8/1 23/2/1 24/1/1
f 25/8/1 26/9/1 27/5/1 28/2/1
f 29/1/1 30/2/1 31/3/1 32/4/1
f 33/2/1 34/5/1 35/6/1 36/3/1
f 37/1/1 38/2/1 39/3/1 40/4/1
f 41/2/1 42/5/1 43/6/1 44/3/1
f 45/10/1 46/11/1 47/12/1 48/13/1
f 49/7/1 50/8/1 51/2/1 52/1/1
f 53/8/1 54/9/1 55/5/1 56/2/1
f 57/7/1 58/8/1 59/2/1 60/1/1
f 61/8/1 62/9/1 63/5/1 64/2/1

