# Tiled2Unity generated file. Do not modify by hand.
# Wavefront file for 'Jungle1_mesh_0001.obj'

# Vertices (Count = 336)
v -2.24 -10.24 0
v -2.56 -10.24 0
v -2.56 -9.92 0
v -2.24 -9.92 0
v -2.56 -10.24 0
v -2.88 -10.24 0
v -2.88 -9.92 0
v -2.56 -9.92 0
v -2.88 -10.24 0
v -3.2 -10.24 0
v -3.2 -9.92 0
v -2.88 -9.92 0
v -3.2 -10.24 0
v -3.52 -10.24 0
v -3.52 -9.92 0
v -3.2 -9.92 0
v -3.52 -10.24 0
v -3.84 -10.24 0
v -3.84 -9.92 0
v -3.52 -9.92 0
v -3.84 -10.24 0
v -4.16 -10.24 0
v -4.16 -9.92 0
v -3.84 -9.92 0
v -4.16 -10.24 0
v -4.48 -10.24 0
v -4.48 -9.92 0
v -4.16 -9.92 0
v -4.48 -10.24 0
v -4.8 -10.24 0
v -4.8 -9.92 0
v -4.48 -9.92 0
v -4.8 -10.24 0
v -5.12 -10.24 0
v -5.12 -9.92 0
v -4.8 -9.92 0
v -5.12 -10.24 0
v -5.44 -10.24 0
v -5.44 -9.92 0
v -5.12 -9.92 0
v -5.44 -10.24 0
v -5.76 -10.24 0
v -5.76 -9.92 0
v -5.44 -9.92 0
v -5.76 -10.24 0
v -6.08 -10.24 0
v -6.08 -9.92 0
v -5.76 -9.92 0
v -6.08 -10.24 0
v -6.4 -10.24 0
v -6.4 -9.92 0
v -6.08 -9.92 0
v -6.4 -10.24 0
v -6.72 -10.24 0
v -6.72 -9.92 0
v -6.4 -9.92 0
v -2.24 -10.56 0
v -2.56 -10.56 0
v -2.56 -10.24 0
v -2.24 -10.24 0
v -2.56 -10.56 0
v -2.88 -10.56 0
v -2.88 -10.24 0
v -2.56 -10.24 0
v -2.88 -10.56 0
v -3.2 -10.56 0
v -3.2 -10.24 0
v -2.88 -10.24 0
v -3.2 -10.56 0
v -3.52 -10.56 0
v -3.52 -10.24 0
v -3.2 -10.24 0
v -3.52 -10.56 0
v -3.84 -10.56 0
v -3.84 -10.24 0
v -3.52 -10.24 0
v -3.84 -10.56 0
v -4.16 -10.56 0
v -4.16 -10.24 0
v -3.84 -10.24 0
v -4.16 -10.56 0
v -4.48 -10.56 0
v -4.48 -10.24 0
v -4.16 -10.24 0
v -4.48 -10.56 0
v -4.8 -10.56 0
v -4.8 -10.24 0
v -4.48 -10.24 0
v -4.8 -10.56 0
v -5.12 -10.56 0
v -5.12 -10.24 0
v -4.8 -10.24 0
v -5.12 -10.56 0
v -5.44 -10.56 0
v -5.44 -10.24 0
v -5.12 -10.24 0
v -5.44 -10.56 0
v -5.76 -10.56 0
v -5.76 -10.24 0
v -5.44 -10.24 0
v -5.76 -10.56 0
v -6.08 -10.56 0
v -6.08 -10.24 0
v -5.76 -10.24 0
v -6.08 -10.56 0
v -6.4 -10.56 0
v -6.4 -10.24 0
v -6.08 -10.24 0
v -6.4 -10.56 0
v -6.72 -10.56 0
v -6.72 -10.24 0
v -6.4 -10.24 0
v -2.24 -10.88 0
v -2.56 -10.88 0
v -2.56 -10.56 0
v -2.24 -10.56 0
v -2.56 -10.88 0
v -2.88 -10.88 0
v -2.88 -10.56 0
v -2.56 -10.56 0
v -2.88 -10.88 0
v -3.2 -10.88 0
v -3.2 -10.56 0
v -2.88 -10.56 0
v -3.2 -10.88 0
v -3.52 -10.88 0
v -3.52 -10.56 0
v -3.2 -10.56 0
v -3.52 -10.88 0
v -3.84 -10.88 0
v -3.84 -10.56 0
v -3.52 -10.56 0
v -3.84 -10.88 0
v -4.16 -10.88 0
v -4.16 -10.56 0
v -3.84 -10.56 0
v -4.16 -10.88 0
v -4.48 -10.88 0
v -4.48 -10.56 0
v -4.16 -10.56 0
v -4.48 -10.88 0
v -4.8 -10.88 0
v -4.8 -10.56 0
v -4.48 -10.56 0
v -4.8 -10.88 0
v -5.12 -10.88 0
v -5.12 -10.56 0
v -4.8 -10.56 0
v -5.12 -10.88 0
v -5.44 -10.88 0
v -5.44 -10.56 0
v -5.12 -10.56 0
v -5.44 -10.88 0
v -5.76 -10.88 0
v -5.76 -10.56 0
v -5.44 -10.56 0
v -5.76 -10.88 0
v -6.08 -10.88 0
v -6.08 -10.56 0
v -5.76 -10.56 0
v -6.08 -10.88 0
v -6.4 -10.88 0
v -6.4 -10.56 0
v -6.08 -10.56 0
v -6.4 -10.88 0
v -6.72 -10.88 0
v -6.72 -10.56 0
v -6.4 -10.56 0
v -2.24 -11.2 0
v -2.56 -11.2 0
v -2.56 -10.88 0
v -2.24 -10.88 0
v -2.56 -11.2 0
v -2.88 -11.2 0
v -2.88 -10.88 0
v -2.56 -10.88 0
v -2.88 -11.2 0
v -3.2 -11.2 0
v -3.2 -10.88 0
v -2.88 -10.88 0
v -3.2 -11.2 0
v -3.52 -11.2 0
v -3.52 -10.88 0
v -3.2 -10.88 0
v -3.52 -11.2 0
v -3.84 -11.2 0
v -3.84 -10.88 0
v -3.52 -10.88 0
v -3.84 -11.2 0
v -4.16 -11.2 0
v -4.16 -10.88 0
v -3.84 -10.88 0
v -4.16 -11.2 0
v -4.48 -11.2 0
v -4.48 -10.88 0
v -4.16 -10.88 0
v -4.48 -11.2 0
v -4.8 -11.2 0
v -4.8 -10.88 0
v -4.48 -10.88 0
v -4.8 -11.2 0
v -5.12 -11.2 0
v -5.12 -10.88 0
v -4.8 -10.88 0
v -5.12 -11.2 0
v -5.44 -11.2 0
v -5.44 -10.88 0
v -5.12 -10.88 0
v -5.44 -11.2 0
v -5.76 -11.2 0
v -5.76 -10.88 0
v -5.44 -10.88 0
v -5.76 -11.2 0
v -6.08 -11.2 0
v -6.08 -10.88 0
v -5.76 -10.88 0
v -6.08 -11.2 0
v -6.4 -11.2 0
v -6.4 -10.88 0
v -6.08 -10.88 0
v -6.4 -11.2 0
v -6.72 -11.2 0
v -6.72 -10.88 0
v -6.4 -10.88 0
v -2.24 -11.52 0
v -2.56 -11.52 0
v -2.56 -11.2 0
v -2.24 -11.2 0
v -2.56 -11.52 0
v -2.88 -11.52 0
v -2.88 -11.2 0
v -2.56 -11.2 0
v -2.88 -11.52 0
v -3.2 -11.52 0
v -3.2 -11.2 0
v -2.88 -11.2 0
v -3.2 -11.52 0
v -3.52 -11.52 0
v -3.52 -11.2 0
v -3.2 -11.2 0
v -3.52 -11.52 0
v -3.84 -11.52 0
v -3.84 -11.2 0
v -3.52 -11.2 0
v -3.84 -11.52 0
v -4.16 -11.52 0
v -4.16 -11.2 0
v -3.84 -11.2 0
v -4.16 -11.52 0
v -4.48 -11.52 0
v -4.48 -11.2 0
v -4.16 -11.2 0
v -4.48 -11.52 0
v -4.8 -11.52 0
v -4.8 -11.2 0
v -4.48 -11.2 0
v -4.8 -11.52 0
v -5.12 -11.52 0
v -5.12 -11.2 0
v -4.8 -11.2 0
v -5.12 -11.52 0
v -5.44 -11.52 0
v -5.44 -11.2 0
v -5.12 -11.2 0
v -5.44 -11.52 0
v -5.76 -11.52 0
v -5.76 -11.2 0
v -5.44 -11.2 0
v -5.76 -11.52 0
v -6.08 -11.52 0
v -6.08 -11.2 0
v -5.76 -11.2 0
v -6.08 -11.52 0
v -6.4 -11.52 0
v -6.4 -11.2 0
v -6.08 -11.2 0
v -6.4 -11.52 0
v -6.72 -11.52 0
v -6.72 -11.2 0
v -6.4 -11.2 0
v -2.24 -11.84 0
v -2.56 -11.84 0
v -2.56 -11.52 0
v -2.24 -11.52 0
v -2.56 -11.84 0
v -2.88 -11.84 0
v -2.88 -11.52 0
v -2.56 -11.52 0
v -2.88 -11.84 0
v -3.2 -11.84 0
v -3.2 -11.52 0
v -2.88 -11.52 0
v -3.2 -11.84 0
v -3.52 -11.84 0
v -3.52 -11.52 0
v -3.2 -11.52 0
v -3.52 -11.84 0
v -3.84 -11.84 0
v -3.84 -11.52 0
v -3.52 -11.52 0
v -3.84 -11.84 0
v -4.16 -11.84 0
v -4.16 -11.52 0
v -3.84 -11.52 0
v -4.16 -11.84 0
v -4.48 -11.84 0
v -4.48 -11.52 0
v -4.16 -11.52 0
v -4.48 -11.84 0
v -4.8 -11.84 0
v -4.8 -11.52 0
v -4.48 -11.52 0
v -4.8 -11.84 0
v -5.12 -11.84 0
v -5.12 -11.52 0
v -4.8 -11.52 0
v -5.12 -11.84 0
v -5.44 -11.84 0
v -5.44 -11.52 0
v -5.12 -11.52 0
v -5.44 -11.84 0
v -5.76 -11.84 0
v -5.76 -11.52 0
v -5.44 -11.52 0
v -5.76 -11.84 0
v -6.08 -11.84 0
v -6.08 -11.52 0
v -5.76 -11.52 0
v -6.08 -11.84 0
v -6.4 -11.84 0
v -6.4 -11.52 0
v -6.08 -11.52 0
v -6.4 -11.84 0
v -6.72 -11.84 0
v -6.72 -11.52 0
v -6.4 -11.52 0

# Texture cooridinates (Count = 105)
vt 0 0.8333333
vt 0.07142857 0.8333333
vt 0.07142857 1
vt 0 1
vt 0.1428571 0.8333333
vt 0.1428571 1
vt 0.2142857 0.8333333
vt 0.2142857 1
vt 0.2857143 0.8333333
vt 0.2857143 1
vt 0.3571429 0.8333333
vt 0.3571429 1
vt 0.4285714 0.8333333
vt 0.4285714 1
vt 0.5 0.8333333
vt 0.5 1
vt 0.5714286 0.8333333
vt 0.5714286 1
vt 0.6428571 0.8333333
vt 0.6428571 1
vt 0.7142857 0.8333333
vt 0.7142857 1
vt 0.7857143 0.8333333
vt 0.7857143 1
vt 0.8571429 0.8333333
vt 0.8571429 1
vt 0.9285714 0.8333333
vt 0.9285714 1
vt 1 0.8333333
vt 1 1
vt 0 0.6666666
vt 0.07142857 0.6666666
vt 0.1428571 0.6666666
vt 0.2142857 0.6666666
vt 0.2857143 0.6666666
vt 0.3571429 0.6666666
vt 0.4285714 0.6666666
vt 0.5 0.6666666
vt 0.5714286 0.6666666
vt 0.6428571 0.6666666
vt 0.7142857 0.6666666
vt 0.7857143 0.6666666
vt 0.8571429 0.6666666
vt 0.9285714 0.6666666
vt 1 0.6666666
vt 0 0.5
vt 0.07142857 0.5
vt 0.1428571 0.5
vt 0.2142857 0.5
vt 0.2857143 0.5
vt 0.3571429 0.5
vt 0.4285714 0.5
vt 0.5 0.5
vt 0.5714286 0.5
vt 0.6428571 0.5
vt 0.7142857 0.5
vt 0.7857143 0.5
vt 0.8571429 0.5
vt 0.9285714 0.5
vt 1 0.5
vt 0 0.3333333
vt 0.07142857 0.3333333
vt 0.1428571 0.3333333
vt 0.2142857 0.3333333
vt 0.2857143 0.3333333
vt 0.3571429 0.3333333
vt 0.4285714 0.3333333
vt 0.5 0.3333333
vt 0.5714286 0.3333333
vt 0.6428571 0.3333333
vt 0.7142857 0.3333333
vt 0.7857143 0.3333333
vt 0.8571429 0.3333333
vt 0.9285714 0.3333333
vt 1 0.3333333
vt 0 0.1666667
vt 0.07142857 0.1666667
vt 0.1428571 0.1666667
vt 0.2142857 0.1666667
vt 0.2857143 0.1666667
vt 0.3571429 0.1666667
vt 0.4285714 0.1666667
vt 0.5 0.1666667
vt 0.5714286 0.1666667
vt 0.6428571 0.1666667
vt 0.7142857 0.1666667
vt 0.7857143 0.1666667
vt 0.8571429 0.1666667
vt 0.9285714 0.1666667
vt 1 0.1666667
vt 0 0
vt 0.07142857 0
vt 0.1428571 0
vt 0.2142857 0
vt 0.2857143 0
vt 0.3571429 0
vt 0.4285714 0
vt 0.5 0
vt 0.5714286 0
vt 0.6428571 0
vt 0.7142857 0
vt 0.7857143 0
vt 0.8571429 0
vt 0.9285714 0
vt 1 0

# Normal
vn 0 0 -1

# Mesh description
g Jungle1_mesh_0001

# Faces
f 1/1/1 2/2/1 3/3/1 4/4/1
f 5/2/1 6/5/1 7/6/1 8/3/1
f 9/5/1 10/7/1 11/8/1 12/6/1
f 13/7/1 14/9/1 15/10/1 16/8/1
f 17/9/1 18/11/1 19/12/1 20/10/1
f 21/11/1 22/13/1 23/14/1 24/12/1
f 25/13/1 26/15/1 27/16/1 28/14/1
f 29/15/1 30/17/1 31/18/1 32/16/1
f 33/17/1 34/19/1 35/20/1 36/18/1
f 37/19/1 38/21/1 39/22/1 40/20/1
f 41/21/1 42/23/1 43/24/1 44/22/1
f 45/23/1 46/25/1 47/26/1 48/24/1
f 49/25/1 50/27/1 51/28/1 52/26/1
f 53/27/1 54/29/1 55/30/1 56/28/1
f 57/31/1 58/32/1 59/2/1 60/1/1
f 61/32/1 62/33/1 63/5/1 64/2/1
f 65/33/1 66/34/1 67/7/1 68/5/1
f 69/34/1 70/35/1 71/9/1 72/7/1
f 73/35/1 74/36/1 75/11/1 76/9/1
f 77/36/1 78/37/1 79/13/1 80/11/1
f 81/37/1 82/38/1 83/15/1 84/13/1
f 85/38/1 86/39/1 87/17/1 88/15/1
f 89/39/1 90/40/1 91/19/1 92/17/1
f 93/40/1 94/41/1 95/21/1 96/19/1
f 97/41/1 98/42/1 99/23/1 100/21/1
f 101/42/1 102/43/1 103/25/1 104/23/1
f 105/43/1 106/44/1 107/27/1 108/25/1
f 109/44/1 110/45/1 111/29/1 112/27/1
f 113/46/1 114/47/1 115/32/1 116/31/1
f 117/47/1 118/48/1 119/33/1 120/32/1
f 121/48/1 122/49/1 123/34/1 124/33/1
f 125/49/1 126/50/1 127/35/1 128/34/1
f 129/50/1 130/51/1 131/36/1 132/35/1
f 133/51/1 134/52/1 135/37/1 136/36/1
f 137/52/1 138/53/1 139/38/1 140/37/1
f 141/53/1 142/54/1 143/39/1 144/38/1
f 145/54/1 146/55/1 147/40/1 148/39/1
f 149/55/1 150/56/1 151/41/1 152/40/1
f 153/56/1 154/57/1 155/42/1 156/41/1
f 157/57/1 158/58/1 159/43/1 160/42/1
f 161/58/1 162/59/1 163/44/1 164/43/1
f 165/59/1 166/60/1 167/45/1 168/44/1
f 169/61/1 170/62/1 171/47/1 172/46/1
f 173/62/1 174/63/1 175/48/1 176/47/1
f 177/63/1 178/64/1 179/49/1 180/48/1
f 181/64/1 182/65/1 183/50/1 184/49/1
f 185/65/1 186/66/1 187/51/1 188/50/1
f 189/66/1 190/67/1 191/52/1 192/51/1
f 193/67/1 194/68/1 195/53/1 196/52/1
f 197/68/1 198/69/1 199/54/1 200/53/1
f 201/69/1 202/70/1 203/55/1 204/54/1
f 205/70/1 206/71/1 207/56/1 208/55/1
f 209/71/1 210/72/1 211/57/1 212/56/1
f 213/72/1 214/73/1 215/58/1 216/57/1
f 217/73/1 218/74/1 219/59/1 220/58/1
f 221/74/1 222/75/1 223/60/1 224/59/1
f 225/76/1 226/77/1 227/62/1 228/61/1
f 229/77/1 230/78/1 231/63/1 232/62/1
f 233/78/1 234/79/1 235/64/1 236/63/1
f 237/79/1 238/80/1 239/65/1 240/64/1
f 241/80/1 242/81/1 243/66/1 244/65/1
f 245/81/1 246/82/1 247/67/1 248/66/1
f 249/82/1 250/83/1 251/68/1 252/67/1
f 253/83/1 254/84/1 255/69/1 256/68/1
f 257/84/1 258/85/1 259/70/1 260/69/1
f 261/85/1 262/86/1 263/71/1 264/70/1
f 265/86/1 266/87/1 267/72/1 268/71/1
f 269/87/1 270/88/1 271/73/1 272/72/1
f 273/88/1 274/89/1 275/74/1 276/73/1
f 277/89/1 278/90/1 279/75/1 280/74/1
f 281/91/1 282/92/1 283/77/1 284/76/1
f 285/92/1 286/93/1 287/78/1 288/77/1
f 289/93/1 290/94/1 291/79/1 292/78/1
f 293/94/1 294/95/1 295/80/1 296/79/1
f 297/95/1 298/96/1 299/81/1 300/80/1
f 301/96/1 302/97/1 303/82/1 304/81/1
f 305/97/1 306/98/1 307/83/1 308/82/1
f 309/98/1 310/99/1 311/84/1 312/83/1
f 313/99/1 314/100/1 315/85/1 316/84/1
f 317/100/1 318/101/1 319/86/1 320/85/1
f 321/101/1 322/102/1 323/87/1 324/86/1
f 325/102/1 326/103/1 327/88/1 328/87/1
f 329/103/1 330/104/1 331/89/1 332/88/1
f 333/104/1 334/105/1 335/90/1 336/89/1

