# Tiled2Unity generated file. Do not modify by hand.
# Wavefront file for 'Jungle1_mesh_0003.obj'

# Vertices (Count = 16)
v -5.76 -11.2 0
v -6.08 -11.2 0
v -6.08 -10.88 0
v -5.76 -10.88 0
v -6.08 -11.2 0
v -6.4 -11.2 0
v -6.4 -10.88 0
v -6.08 -10.88 0
v -6.4 -11.2 0
v -6.72 -11.2 0
v -6.72 -10.88 0
v -6.4 -10.88 0
v -6.72 -11.2 0
v -7.04 -11.2 0
v -7.04 -10.88 0
v -6.72 -10.88 0

# Texture cooridinates (Count = 4)
vt 0.5833333 0.5
vt 0.6666667 0.5
vt 0.6666667 0.6666666
vt 0.5833333 0.6666666

# Normal
vn 0 0 -1

# Mesh description
g Jungle1_mesh_0003

# Faces
f 1/1/1 2/2/1 3/3/1 4/4/1
f 5/1/1 6/2/1 7/3/1 8/4/1
f 9/1/1 10/2/1 11/3/1 12/4/1
f 13/1/1 14/2/1 15/3/1 16/4/1

