# Tiled2Unity generated file. Do not modify by hand.
# Wavefront file for 'Platform_Small_mesh_0001.obj'

# Vertices (Count = 32)
v 0 -0.32 0
v -0.32 -0.32 0
v -0.32 0 0
v 0 0 0
v -0.32 -0.32 0
v -0.64 -0.32 0
v -0.64 0 0
v -0.32 0 0
v -0.64 -0.32 0
v -0.96 -0.32 0
v -0.96 0 0
v -0.64 0 0
v -0.96 -0.32 0
v -1.28 -0.32 0
v -1.28 0 0
v -0.96 0 0
v 0 -0.64 0
v -0.32 -0.64 0
v -0.32 -0.32 0
v 0 -0.32 0
v -0.32 -0.64 0
v -0.64 -0.64 0
v -0.64 -0.32 0
v -0.32 -0.32 0
v -0.64 -0.64 0
v -0.96 -0.64 0
v -0.96 -0.32 0
v -0.64 -0.32 0
v -0.96 -0.64 0
v -1.28 -0.64 0
v -1.28 -0.32 0
v -0.96 -0.32 0

# Texture cooridinates (Count = 12)
vt 0.5 0.5
vt 0.5833333 0.5
vt 0.5833333 0.6666666
vt 0.5 0.6666666
vt 0.6666667 0.5
vt 0.6666667 0.6666666
vt 0.75 0.5
vt 0.75 0.6666666
vt 0.5 0.3333333
vt 0.5833333 0.3333333
vt 0.6666667 0.3333333
vt 0.75 0.3333333

# Normal
vn 0 0 -1

# Mesh description
g Platform_Small_mesh_0001

# Faces
f 1/1/1 2/2/1 3/3/1 4/4/1
f 5/2/1 6/5/1 7/6/1 8/3/1
f 9/2/1 10/5/1 11/6/1 12/3/1
f 13/5/1 14/7/1 15/8/1 16/6/1
f 17/9/1 18/10/1 19/2/1 20/1/1
f 21/10/1 22/11/1 23/5/1 24/2/1
f 25/10/1 26/11/1 27/5/1 28/2/1
f 29/11/1 30/12/1 31/7/1 32/5/1

