# Tiled2Unity generated file. Do not modify by hand.
# Wavefront file for 'Jungle2_mesh_0002.obj'

# Vertices (Count = 8)
v -8.96 -35.2 0
v -9.28 -35.2 0
v -9.28 -34.88 0
v -8.96 -34.88 0
v -8.96 -35.52 0
v -9.28 -35.52 0
v -9.28 -35.2 0
v -8.96 -35.2 0

# Texture cooridinates (Count = 6)
vt 0.7777778 0.8205128
vt 0.8888889 0.8205128
vt 0.8888889 0.8461539
vt 0.7777778 0.8461539
vt 0.7777778 0.7948718
vt 0.8888889 0.7948718

# Normal
vn 0 0 -1

# Mesh description
g Jungle2_mesh_0002

# Faces
f 1/1/1 2/2/1 3/3/1 4/4/1
f 5/5/1 6/6/1 7/2/1 8/1/1

