# Tiled2Unity generated file. Do not modify by hand.
# Wavefront file for 'Jungle2_mesh_0009.obj'

# Vertices (Count = 128)
v -22.4 -26.88 0
v -22.72 -26.88 0
v -22.72 -26.56 0
v -22.4 -26.56 0
v -22.72 -26.88 0
v -23.04 -26.88 0
v -23.04 -26.56 0
v -22.72 -26.56 0
v -25.6 -26.88 0
v -25.92 -26.88 0
v -25.92 -26.56 0
v -25.6 -26.56 0
v -25.92 -26.88 0
v -26.24 -26.88 0
v -26.24 -26.56 0
v -25.92 -26.56 0
v -22.4 -27.2 0
v -22.72 -27.2 0
v -22.72 -26.88 0
v -22.4 -26.88 0
v -22.72 -27.2 0
v -23.04 -27.2 0
v -23.04 -26.88 0
v -22.72 -26.88 0
v -25.6 -27.2 0
v -25.92 -27.2 0
v -25.92 -26.88 0
v -25.6 -26.88 0
v -25.92 -27.2 0
v -26.24 -27.2 0
v -26.24 -26.88 0
v -25.92 -26.88 0
v -21.76 -27.52 0
v -22.08 -27.52 0
v -22.08 -27.2 0
v -21.76 -27.2 0
v -22.08 -27.52 0
v -22.4 -27.52 0
v -22.4 -27.2 0
v -22.08 -27.2 0
v -21.76 -27.84 0
v -22.08 -27.84 0
v -22.08 -27.52 0
v -21.76 -27.52 0
v -22.08 -27.84 0
v -22.4 -27.84 0
v -22.4 -27.52 0
v -22.08 -27.52 0
v -25.28 -27.84 0
v -25.6 -27.84 0
v -25.6 -27.52 0
v -25.28 -27.52 0
v -25.6 -27.84 0
v -25.92 -27.84 0
v -25.92 -27.52 0
v -25.6 -27.52 0
v -25.28 -28.16 0
v -25.6 -28.16 0
v -25.6 -27.84 0
v -25.28 -27.84 0
v -25.6 -28.16 0
v -25.92 -28.16 0
v -25.92 -27.84 0
v -25.6 -27.84 0
v -21.12 -28.48 0
v -21.44 -28.48 0
v -21.44 -28.16 0
v -21.12 -28.16 0
v -21.44 -28.48 0
v -21.76 -28.48 0
v -21.76 -28.16 0
v -21.44 -28.16 0
v -21.12 -28.8 0
v -21.44 -28.8 0
v -21.44 -28.48 0
v -21.12 -28.48 0
v -21.44 -28.8 0
v -21.76 -28.8 0
v -21.76 -28.48 0
v -21.44 -28.48 0
v -21.76 -28.8 0
v -22.08 -28.8 0
v -22.08 -28.48 0
v -21.76 -28.48 0
v -22.08 -28.8 0
v -22.4 -28.8 0
v -22.4 -28.48 0
v -22.08 -28.48 0
v -21.76 -29.12 0
v -22.08 -29.12 0
v -22.08 -28.8 0
v -21.76 -28.8 0
v -22.08 -29.12 0
v -22.4 -29.12 0
v -22.4 -28.8 0
v -22.08 -28.8 0
v -22.4 -29.44 0
v -22.72 -29.44 0
v -22.72 -29.12 0
v -22.4 -29.12 0
v -22.72 -29.44 0
v -23.04 -29.44 0
v -23.04 -29.12 0
v -22.72 -29.12 0
v -24.96 -29.44 0
v -25.28 -29.44 0
v -25.28 -29.12 0
v -24.96 -29.12 0
v -25.28 -29.44 0
v -25.6 -29.44 0
v -25.6 -29.12 0
v -25.28 -29.12 0
v -22.4 -29.76 0
v -22.72 -29.76 0
v -22.72 -29.44 0
v -22.4 -29.44 0
v -22.72 -29.76 0
v -23.04 -29.76 0
v -23.04 -29.44 0
v -22.72 -29.44 0
v -24.96 -29.76 0
v -25.28 -29.76 0
v -25.28 -29.44 0
v -24.96 -29.44 0
v -25.28 -29.76 0
v -25.6 -29.76 0
v -25.6 -29.44 0
v -25.28 -29.44 0

# Texture cooridinates (Count = 9)
vt 0.9 0.4545454
vt 0.95 0.4545454
vt 0.95 0.5454545
vt 0.9 0.5454545
vt 1 0.4545454
vt 1 0.5454545
vt 0.9 0.3636364
vt 0.95 0.3636364
vt 1 0.3636364

# Normal
vn 0 0 -1

# Mesh description
g Jungle2_mesh_0009

# Faces
f 1/1/1 2/2/1 3/3/1 4/4/1
f 5/2/1 6/5/1 7/6/1 8/3/1
f 9/1/1 10/2/1 11/3/1 12/4/1
f 13/2/1 14/5/1 15/6/1 16/3/1
f 17/7/1 18/8/1 19/2/1 20/1/1
f 21/8/1 22/9/1 23/5/1 24/2/1
f 25/7/1 26/8/1 27/2/1 28/1/1
f 29/8/1 30/9/1 31/5/1 32/2/1
f 33/1/1 34/2/1 35/3/1 36/4/1
f 37/2/1 38/5/1 39/6/1 40/3/1
f 41/7/1 42/8/1 43/2/1 44/1/1
f 45/8/1 46/9/1 47/5/1 48/2/1
f 49/1/1 50/2/1 51/3/1 52/4/1
f 53/2/1 54/5/1 55/6/1 56/3/1
f 57/7/1 58/8/1 59/2/1 60/1/1
f 61/8/1 62/9/1 63/5/1 64/2/1
f 65/1/1 66/2/1 67/3/1 68/4/1
f 69/2/1 70/5/1 71/6/1 72/3/1
f 73/7/1 74/8/1 75/2/1 76/1/1
f 77/8/1 78/9/1 79/5/1 80/2/1
f 81/1/1 82/2/1 83/3/1 84/4/1
f 85/2/1 86/5/1 87/6/1 88/3/1
f 89/7/1 90/8/1 91/2/1 92/1/1
f 93/8/1 94/9/1 95/5/1 96/2/1
f 97/1/1 98/2/1 99/3/1 100/4/1
f 101/2/1 102/5/1 103/6/1 104/3/1
f 105/1/1 106/2/1 107/3/1 108/4/1
f 109/2/1 110/5/1 111/6/1 112/3/1
f 113/7/1 114/8/1 115/2/1 116/1/1
f 117/8/1 118/9/1 119/5/1 120/2/1
f 121/7/1 122/8/1 123/2/1 124/1/1
f 125/8/1 126/9/1 127/5/1 128/2/1

