# Tiled2Unity generated file. Do not modify by hand.
# Wavefront file for 'Jungle2_mesh_0003.obj'

# Vertices (Count = 840)
v -8.96 -0.32 0
v -9.28 -0.32 0
v -9.28 0 0
v -8.96 0 0
v -42.56 -0.32 0
v -42.88 -0.32 0
v -42.88 0 0
v -42.56 0 0
v -8.96 -0.64 0
v -9.28 -0.64 0
v -9.28 -0.32 0
v -8.96 -0.32 0
v -42.56 -0.64 0
v -42.88 -0.64 0
v -42.88 -0.32 0
v -42.56 -0.32 0
v -8.96 -0.96 0
v -9.28 -0.96 0
v -9.28 -0.64 0
v -8.96 -0.64 0
v -42.56 -0.96 0
v -42.88 -0.96 0
v -42.88 -0.64 0
v -42.56 -0.64 0
v -8.96 -1.28 0
v -9.28 -1.28 0
v -9.28 -0.96 0
v -8.96 -0.96 0
v -42.56 -1.28 0
v -42.88 -1.28 0
v -42.88 -0.96 0
v -42.56 -0.96 0
v -8.96 -1.6 0
v -9.28 -1.6 0
v -9.28 -1.28 0
v -8.96 -1.28 0
v -42.56 -1.6 0
v -42.88 -1.6 0
v -42.88 -1.28 0
v -42.56 -1.28 0
v -8.96 -1.92 0
v -9.28 -1.92 0
v -9.28 -1.6 0
v -8.96 -1.6 0
v -42.56 -1.92 0
v -42.88 -1.92 0
v -42.88 -1.6 0
v -42.56 -1.6 0
v -8.96 -2.24 0
v -9.28 -2.24 0
v -9.28 -1.92 0
v -8.96 -1.92 0
v -42.56 -2.24 0
v -42.88 -2.24 0
v -42.88 -1.92 0
v -42.56 -1.92 0
v -8.96 -2.56 0
v -9.28 -2.56 0
v -9.28 -2.24 0
v -8.96 -2.24 0
v -42.56 -2.56 0
v -42.88 -2.56 0
v -42.88 -2.24 0
v -42.56 -2.24 0
v -8.96 -2.88 0
v -9.28 -2.88 0
v -9.28 -2.56 0
v -8.96 -2.56 0
v -42.56 -2.88 0
v -42.88 -2.88 0
v -42.88 -2.56 0
v -42.56 -2.56 0
v -8.96 -3.2 0
v -9.28 -3.2 0
v -9.28 -2.88 0
v -8.96 -2.88 0
v -42.56 -3.2 0
v -42.88 -3.2 0
v -42.88 -2.88 0
v -42.56 -2.88 0
v -8.96 -3.52 0
v -9.28 -3.52 0
v -9.28 -3.2 0
v -8.96 -3.2 0
v -42.56 -3.52 0
v -42.88 -3.52 0
v -42.88 -3.2 0
v -42.56 -3.2 0
v -8.96 -3.84 0
v -9.28 -3.84 0
v -9.28 -3.52 0
v -8.96 -3.52 0
v -42.56 -3.84 0
v -42.88 -3.84 0
v -42.88 -3.52 0
v -42.56 -3.52 0
v -8.96 -4.16 0
v -9.28 -4.16 0
v -9.28 -3.84 0
v -8.96 -3.84 0
v -42.56 -4.16 0
v -42.88 -4.16 0
v -42.88 -3.84 0
v -42.56 -3.84 0
v -8.96 -4.48 0
v -9.28 -4.48 0
v -9.28 -4.16 0
v -8.96 -4.16 0
v -42.56 -4.48 0
v -42.88 -4.48 0
v -42.88 -4.16 0
v -42.56 -4.16 0
v -8.96 -4.8 0
v -9.28 -4.8 0
v -9.28 -4.48 0
v -8.96 -4.48 0
v -42.56 -4.8 0
v -42.88 -4.8 0
v -42.88 -4.48 0
v -42.56 -4.48 0
v -8.96 -5.12 0
v -9.28 -5.12 0
v -9.28 -4.8 0
v -8.96 -4.8 0
v -42.56 -5.12 0
v -42.88 -5.12 0
v -42.88 -4.8 0
v -42.56 -4.8 0
v -8.96 -5.44 0
v -9.28 -5.44 0
v -9.28 -5.12 0
v -8.96 -5.12 0
v -42.56 -5.44 0
v -42.88 -5.44 0
v -42.88 -5.12 0
v -42.56 -5.12 0
v -8.96 -5.76 0
v -9.28 -5.76 0
v -9.28 -5.44 0
v -8.96 -5.44 0
v -42.56 -5.76 0
v -42.88 -5.76 0
v -42.88 -5.44 0
v -42.56 -5.44 0
v -8.96 -6.08 0
v -9.28 -6.08 0
v -9.28 -5.76 0
v -8.96 -5.76 0
v -42.56 -6.08 0
v -42.88 -6.08 0
v -42.88 -5.76 0
v -42.56 -5.76 0
v -8.96 -6.4 0
v -9.28 -6.4 0
v -9.28 -6.08 0
v -8.96 -6.08 0
v -42.56 -6.4 0
v -42.88 -6.4 0
v -42.88 -6.08 0
v -42.56 -6.08 0
v -8.96 -6.72 0
v -9.28 -6.72 0
v -9.28 -6.4 0
v -8.96 -6.4 0
v -42.56 -6.72 0
v -42.88 -6.72 0
v -42.88 -6.4 0
v -42.56 -6.4 0
v -8.96 -7.04 0
v -9.28 -7.04 0
v -9.28 -6.72 0
v -8.96 -6.72 0
v -42.56 -7.04 0
v -42.88 -7.04 0
v -42.88 -6.72 0
v -42.56 -6.72 0
v -8.96 -7.36 0
v -9.28 -7.36 0
v -9.28 -7.04 0
v -8.96 -7.04 0
v -42.56 -7.36 0
v -42.88 -7.36 0
v -42.88 -7.04 0
v -42.56 -7.04 0
v -8.96 -7.68 0
v -9.28 -7.68 0
v -9.28 -7.36 0
v -8.96 -7.36 0
v -42.56 -7.68 0
v -42.88 -7.68 0
v -42.88 -7.36 0
v -42.56 -7.36 0
v -8.96 -8 0
v -9.28 -8 0
v -9.28 -7.68 0
v -8.96 -7.68 0
v -42.56 -8 0
v -42.88 -8 0
v -42.88 -7.68 0
v -42.56 -7.68 0
v -8.96 -8.32 0
v -9.28 -8.32 0
v -9.28 -8 0
v -8.96 -8 0
v -42.56 -8.32 0
v -42.88 -8.32 0
v -42.88 -8 0
v -42.56 -8 0
v -8.96 -8.639999 0
v -9.28 -8.639999 0
v -9.28 -8.32 0
v -8.96 -8.32 0
v -42.56 -8.639999 0
v -42.88 -8.639999 0
v -42.88 -8.32 0
v -42.56 -8.32 0
v -8.96 -8.96 0
v -9.28 -8.96 0
v -9.28 -8.639999 0
v -8.96 -8.639999 0
v -42.56 -8.96 0
v -42.88 -8.96 0
v -42.88 -8.639999 0
v -42.56 -8.639999 0
v -8.96 -9.28 0
v -9.28 -9.28 0
v -9.28 -8.96 0
v -8.96 -8.96 0
v -42.56 -9.28 0
v -42.88 -9.28 0
v -42.88 -8.96 0
v -42.56 -8.96 0
v -8.96 -9.599999 0
v -9.28 -9.599999 0
v -9.28 -9.28 0
v -8.96 -9.28 0
v -42.56 -9.599999 0
v -42.88 -9.599999 0
v -42.88 -9.28 0
v -42.56 -9.28 0
v -8.96 -9.92 0
v -9.28 -9.92 0
v -9.28 -9.599999 0
v -8.96 -9.599999 0
v -42.56 -9.92 0
v -42.88 -9.92 0
v -42.88 -9.599999 0
v -42.56 -9.599999 0
v -8.96 -10.24 0
v -9.28 -10.24 0
v -9.28 -9.92 0
v -8.96 -9.92 0
v -42.56 -10.24 0
v -42.88 -10.24 0
v -42.88 -9.92 0
v -42.56 -9.92 0
v -8.96 -10.56 0
v -9.28 -10.56 0
v -9.28 -10.24 0
v -8.96 -10.24 0
v -42.56 -10.56 0
v -42.88 -10.56 0
v -42.88 -10.24 0
v -42.56 -10.24 0
v -8.96 -10.88 0
v -9.28 -10.88 0
v -9.28 -10.56 0
v -8.96 -10.56 0
v -42.56 -10.88 0
v -42.88 -10.88 0
v -42.88 -10.56 0
v -42.56 -10.56 0
v -8.96 -11.2 0
v -9.28 -11.2 0
v -9.28 -10.88 0
v -8.96 -10.88 0
v -42.56 -11.2 0
v -42.88 -11.2 0
v -42.88 -10.88 0
v -42.56 -10.88 0
v -8.96 -11.52 0
v -9.28 -11.52 0
v -9.28 -11.2 0
v -8.96 -11.2 0
v -42.56 -11.52 0
v -42.88 -11.52 0
v -42.88 -11.2 0
v -42.56 -11.2 0
v -8.96 -11.84 0
v -9.28 -11.84 0
v -9.28 -11.52 0
v -8.96 -11.52 0
v -42.56 -11.84 0
v -42.88 -11.84 0
v -42.88 -11.52 0
v -42.56 -11.52 0
v -8.96 -12.16 0
v -9.28 -12.16 0
v -9.28 -11.84 0
v -8.96 -11.84 0
v -42.56 -12.16 0
v -42.88 -12.16 0
v -42.88 -11.84 0
v -42.56 -11.84 0
v -8.96 -12.48 0
v -9.28 -12.48 0
v -9.28 -12.16 0
v -8.96 -12.16 0
v -42.56 -12.48 0
v -42.88 -12.48 0
v -42.88 -12.16 0
v -42.56 -12.16 0
v -8.96 -12.8 0
v -9.28 -12.8 0
v -9.28 -12.48 0
v -8.96 -12.48 0
v -42.56 -12.8 0
v -42.88 -12.8 0
v -42.88 -12.48 0
v -42.56 -12.48 0
v -8.96 -13.12 0
v -9.28 -13.12 0
v -9.28 -12.8 0
v -8.96 -12.8 0
v -42.56 -13.12 0
v -42.88 -13.12 0
v -42.88 -12.8 0
v -42.56 -12.8 0
v -8.96 -13.44 0
v -9.28 -13.44 0
v -9.28 -13.12 0
v -8.96 -13.12 0
v -42.56 -13.44 0
v -42.88 -13.44 0
v -42.88 -13.12 0
v -42.56 -13.12 0
v -8.96 -13.76 0
v -9.28 -13.76 0
v -9.28 -13.44 0
v -8.96 -13.44 0
v -42.56 -13.76 0
v -42.88 -13.76 0
v -42.88 -13.44 0
v -42.56 -13.44 0
v -8.96 -14.08 0
v -9.28 -14.08 0
v -9.28 -13.76 0
v -8.96 -13.76 0
v -42.56 -14.08 0
v -42.88 -14.08 0
v -42.88 -13.76 0
v -42.56 -13.76 0
v -8.96 -14.4 0
v -9.28 -14.4 0
v -9.28 -14.08 0
v -8.96 -14.08 0
v -42.56 -14.4 0
v -42.88 -14.4 0
v -42.88 -14.08 0
v -42.56 -14.08 0
v -8.96 -14.72 0
v -9.28 -14.72 0
v -9.28 -14.4 0
v -8.96 -14.4 0
v -42.56 -14.72 0
v -42.88 -14.72 0
v -42.88 -14.4 0
v -42.56 -14.4 0
v -8.96 -15.04 0
v -9.28 -15.04 0
v -9.28 -14.72 0
v -8.96 -14.72 0
v -42.56 -15.04 0
v -42.88 -15.04 0
v -42.88 -14.72 0
v -42.56 -14.72 0
v -8.96 -15.36 0
v -9.28 -15.36 0
v -9.28 -15.04 0
v -8.96 -15.04 0
v -42.56 -15.36 0
v -42.88 -15.36 0
v -42.88 -15.04 0
v -42.56 -15.04 0
v -8.96 -15.68 0
v -9.28 -15.68 0
v -9.28 -15.36 0
v -8.96 -15.36 0
v -42.56 -15.68 0
v -42.88 -15.68 0
v -42.88 -15.36 0
v -42.56 -15.36 0
v -8.96 -16 0
v -9.28 -16 0
v -9.28 -15.68 0
v -8.96 -15.68 0
v -42.56 -16 0
v -42.88 -16 0
v -42.88 -15.68 0
v -42.56 -15.68 0
v -8.96 -16.32 0
v -9.28 -16.32 0
v -9.28 -16 0
v -8.96 -16 0
v -42.56 -16.32 0
v -42.88 -16.32 0
v -42.88 -16 0
v -42.56 -16 0
v -8.96 -16.64 0
v -9.28 -16.64 0
v -9.28 -16.32 0
v -8.96 -16.32 0
v -42.56 -16.64 0
v -42.88 -16.64 0
v -42.88 -16.32 0
v -42.56 -16.32 0
v -8.96 -16.96 0
v -9.28 -16.96 0
v -9.28 -16.64 0
v -8.96 -16.64 0
v -42.56 -16.96 0
v -42.88 -16.96 0
v -42.88 -16.64 0
v -42.56 -16.64 0
v -8.96 -17.28 0
v -9.28 -17.28 0
v -9.28 -16.96 0
v -8.96 -16.96 0
v -42.56 -17.28 0
v -42.88 -17.28 0
v -42.88 -16.96 0
v -42.56 -16.96 0
v -8.96 -17.6 0
v -9.28 -17.6 0
v -9.28 -17.28 0
v -8.96 -17.28 0
v -42.56 -17.6 0
v -42.88 -17.6 0
v -42.88 -17.28 0
v -42.56 -17.28 0
v -8.96 -17.92 0
v -9.28 -17.92 0
v -9.28 -17.6 0
v -8.96 -17.6 0
v -42.56 -17.92 0
v -42.88 -17.92 0
v -42.88 -17.6 0
v -42.56 -17.6 0
v -8.96 -18.24 0
v -9.28 -18.24 0
v -9.28 -17.92 0
v -8.96 -17.92 0
v -42.56 -18.24 0
v -42.88 -18.24 0
v -42.88 -17.92 0
v -42.56 -17.92 0
v -8.96 -18.56 0
v -9.28 -18.56 0
v -9.28 -18.24 0
v -8.96 -18.24 0
v -42.56 -18.56 0
v -42.88 -18.56 0
v -42.88 -18.24 0
v -42.56 -18.24 0
v -8.96 -18.88 0
v -9.28 -18.88 0
v -9.28 -18.56 0
v -8.96 -18.56 0
v -42.56 -18.88 0
v -42.88 -18.88 0
v -42.88 -18.56 0
v -42.56 -18.56 0
v -8.96 -19.2 0
v -9.28 -19.2 0
v -9.28 -18.88 0
v -8.96 -18.88 0
v -42.56 -19.2 0
v -42.88 -19.2 0
v -42.88 -18.88 0
v -42.56 -18.88 0
v -8.96 -19.52 0
v -9.28 -19.52 0
v -9.28 -19.2 0
v -8.96 -19.2 0
v -42.56 -19.52 0
v -42.88 -19.52 0
v -42.88 -19.2 0
v -42.56 -19.2 0
v -8.96 -19.84 0
v -9.28 -19.84 0
v -9.28 -19.52 0
v -8.96 -19.52 0
v -42.56 -19.84 0
v -42.88 -19.84 0
v -42.88 -19.52 0
v -42.56 -19.52 0
v -8.96 -20.16 0
v -9.28 -20.16 0
v -9.28 -19.84 0
v -8.96 -19.84 0
v -42.56 -20.16 0
v -42.88 -20.16 0
v -42.88 -19.84 0
v -42.56 -19.84 0
v -8.96 -20.48 0
v -9.28 -20.48 0
v -9.28 -20.16 0
v -8.96 -20.16 0
v -42.56 -20.48 0
v -42.88 -20.48 0
v -42.88 -20.16 0
v -42.56 -20.16 0
v -8.96 -20.8 0
v -9.28 -20.8 0
v -9.28 -20.48 0
v -8.96 -20.48 0
v -42.56 -20.8 0
v -42.88 -20.8 0
v -42.88 -20.48 0
v -42.56 -20.48 0
v -8.96 -21.12 0
v -9.28 -21.12 0
v -9.28 -20.8 0
v -8.96 -20.8 0
v -42.56 -21.12 0
v -42.88 -21.12 0
v -42.88 -20.8 0
v -42.56 -20.8 0
v -8.96 -21.44 0
v -9.28 -21.44 0
v -9.28 -21.12 0
v -8.96 -21.12 0
v -42.56 -21.44 0
v -42.88 -21.44 0
v -42.88 -21.12 0
v -42.56 -21.12 0
v -8.96 -21.76 0
v -9.28 -21.76 0
v -9.28 -21.44 0
v -8.96 -21.44 0
v -42.56 -21.76 0
v -42.88 -21.76 0
v -42.88 -21.44 0
v -42.56 -21.44 0
v -8.96 -22.08 0
v -9.28 -22.08 0
v -9.28 -21.76 0
v -8.96 -21.76 0
v -42.56 -22.08 0
v -42.88 -22.08 0
v -42.88 -21.76 0
v -42.56 -21.76 0
v -8.96 -22.4 0
v -9.28 -22.4 0
v -9.28 -22.08 0
v -8.96 -22.08 0
v -42.56 -22.4 0
v -42.88 -22.4 0
v -42.88 -22.08 0
v -42.56 -22.08 0
v -8.96 -22.72 0
v -9.28 -22.72 0
v -9.28 -22.4 0
v -8.96 -22.4 0
v -42.56 -22.72 0
v -42.88 -22.72 0
v -42.88 -22.4 0
v -42.56 -22.4 0
v -8.96 -23.04 0
v -9.28 -23.04 0
v -9.28 -22.72 0
v -8.96 -22.72 0
v -42.56 -23.04 0
v -42.88 -23.04 0
v -42.88 -22.72 0
v -42.56 -22.72 0
v -8.96 -23.36 0
v -9.28 -23.36 0
v -9.28 -23.04 0
v -8.96 -23.04 0
v -42.56 -23.36 0
v -42.88 -23.36 0
v -42.88 -23.04 0
v -42.56 -23.04 0
v -8.96 -23.68 0
v -9.28 -23.68 0
v -9.28 -23.36 0
v -8.96 -23.36 0
v -42.56 -23.68 0
v -42.88 -23.68 0
v -42.88 -23.36 0
v -42.56 -23.36 0
v -8.96 -24 0
v -9.28 -24 0
v -9.28 -23.68 0
v -8.96 -23.68 0
v -42.56 -24 0
v -42.88 -24 0
v -42.88 -23.68 0
v -42.56 -23.68 0
v -8.96 -24.32 0
v -9.28 -24.32 0
v -9.28 -24 0
v -8.96 -24 0
v -42.56 -24.32 0
v -42.88 -24.32 0
v -42.88 -24 0
v -42.56 -24 0
v -8.96 -24.64 0
v -9.28 -24.64 0
v -9.28 -24.32 0
v -8.96 -24.32 0
v -42.56 -24.64 0
v -42.88 -24.64 0
v -42.88 -24.32 0
v -42.56 -24.32 0
v -8.96 -24.96 0
v -9.28 -24.96 0
v -9.28 -24.64 0
v -8.96 -24.64 0
v -42.56 -24.96 0
v -42.88 -24.96 0
v -42.88 -24.64 0
v -42.56 -24.64 0
v -8.96 -25.28 0
v -9.28 -25.28 0
v -9.28 -24.96 0
v -8.96 -24.96 0
v -42.56 -25.28 0
v -42.88 -25.28 0
v -42.88 -24.96 0
v -42.56 -24.96 0
v -8.96 -25.6 0
v -9.28 -25.6 0
v -9.28 -25.28 0
v -8.96 -25.28 0
v -42.56 -25.6 0
v -42.88 -25.6 0
v -42.88 -25.28 0
v -42.56 -25.28 0
v -8.96 -25.92 0
v -9.28 -25.92 0
v -9.28 -25.6 0
v -8.96 -25.6 0
v -42.56 -25.92 0
v -42.88 -25.92 0
v -42.88 -25.6 0
v -42.56 -25.6 0
v -8.96 -26.24 0
v -9.28 -26.24 0
v -9.28 -25.92 0
v -8.96 -25.92 0
v -42.56 -26.24 0
v -42.88 -26.24 0
v -42.88 -25.92 0
v -42.56 -25.92 0
v -8.96 -26.56 0
v -9.28 -26.56 0
v -9.28 -26.24 0
v -8.96 -26.24 0
v -42.56 -26.56 0
v -42.88 -26.56 0
v -42.88 -26.24 0
v -42.56 -26.24 0
v -8.96 -26.88 0
v -9.28 -26.88 0
v -9.28 -26.56 0
v -8.96 -26.56 0
v -42.56 -26.88 0
v -42.88 -26.88 0
v -42.88 -26.56 0
v -42.56 -26.56 0
v -8.96 -27.2 0
v -9.28 -27.2 0
v -9.28 -26.88 0
v -8.96 -26.88 0
v -42.56 -27.2 0
v -42.88 -27.2 0
v -42.88 -26.88 0
v -42.56 -26.88 0
v -8.96 -27.52 0
v -9.28 -27.52 0
v -9.28 -27.2 0
v -8.96 -27.2 0
v -42.56 -27.52 0
v -42.88 -27.52 0
v -42.88 -27.2 0
v -42.56 -27.2 0
v -8.96 -27.84 0
v -9.28 -27.84 0
v -9.28 -27.52 0
v -8.96 -27.52 0
v -42.56 -27.84 0
v -42.88 -27.84 0
v -42.88 -27.52 0
v -42.56 -27.52 0
v -8.96 -28.16 0
v -9.28 -28.16 0
v -9.28 -27.84 0
v -8.96 -27.84 0
v -26.88 -28.16 0
v -27.2 -28.16 0
v -27.2 -27.84 0
v -26.88 -27.84 0
v -42.56 -28.16 0
v -42.88 -28.16 0
v -42.88 -27.84 0
v -42.56 -27.84 0
v -8.96 -28.48 0
v -9.28 -28.48 0
v -9.28 -28.16 0
v -8.96 -28.16 0
v -26.88 -28.48 0
v -27.2 -28.48 0
v -27.2 -28.16 0
v -26.88 -28.16 0
v -42.56 -28.48 0
v -42.88 -28.48 0
v -42.88 -28.16 0
v -42.56 -28.16 0
v -8.96 -28.8 0
v -9.28 -28.8 0
v -9.28 -28.48 0
v -8.96 -28.48 0
v -26.88 -28.8 0
v -27.2 -28.8 0
v -27.2 -28.48 0
v -26.88 -28.48 0
v -42.56 -28.8 0
v -42.88 -28.8 0
v -42.88 -28.48 0
v -42.56 -28.48 0
v -8.96 -29.12 0
v -9.28 -29.12 0
v -9.28 -28.8 0
v -8.96 -28.8 0
v -26.88 -29.12 0
v -27.2 -29.12 0
v -27.2 -28.8 0
v -26.88 -28.8 0
v -8.96 -29.44 0
v -9.28 -29.44 0
v -9.28 -29.12 0
v -8.96 -29.12 0
v -26.88 -29.44 0
v -27.2 -29.44 0
v -27.2 -29.12 0
v -26.88 -29.12 0
v -8.96 -29.76 0
v -9.28 -29.76 0
v -9.28 -29.44 0
v -8.96 -29.44 0
v -26.88 -29.76 0
v -27.2 -29.76 0
v -27.2 -29.44 0
v -26.88 -29.44 0
v -8.96 -30.08 0
v -9.28 -30.08 0
v -9.28 -29.76 0
v -8.96 -29.76 0
v -26.88 -30.08 0
v -27.2 -30.08 0
v -27.2 -29.76 0
v -26.88 -29.76 0
v -8.96 -30.4 0
v -9.28 -30.4 0
v -9.28 -30.08 0
v -8.96 -30.08 0
v -26.88 -30.4 0
v -27.2 -30.4 0
v -27.2 -30.08 0
v -26.88 -30.08 0
v -8.96 -30.72 0
v -9.28 -30.72 0
v -9.28 -30.4 0
v -8.96 -30.4 0
v -26.88 -30.72 0
v -27.2 -30.72 0
v -27.2 -30.4 0
v -26.88 -30.4 0
v -8.96 -31.04 0
v -9.28 -31.04 0
v -9.28 -30.72 0
v -8.96 -30.72 0
v -26.88 -31.04 0
v -27.2 -31.04 0
v -27.2 -30.72 0
v -26.88 -30.72 0
v -8.96 -31.36 0
v -9.28 -31.36 0
v -9.28 -31.04 0
v -8.96 -31.04 0
v -26.88 -31.36 0
v -27.2 -31.36 0
v -27.2 -31.04 0
v -26.88 -31.04 0
v -8.96 -31.68 0
v -9.28 -31.68 0
v -9.28 -31.36 0
v -8.96 -31.36 0
v -8.96 -32 0
v -9.28 -32 0
v -9.28 -31.68 0
v -8.96 -31.68 0
v -8.96 -32.32 0
v -9.28 -32.32 0
v -9.28 -32 0
v -8.96 -32 0
v -8.96 -32.64 0
v -9.28 -32.64 0
v -9.28 -32.32 0
v -8.96 -32.32 0
v -8.96 -32.96 0
v -9.28 -32.96 0
v -9.28 -32.64 0
v -8.96 -32.64 0
v -8.96 -33.28 0
v -9.28 -33.28 0
v -9.28 -32.96 0
v -8.96 -32.96 0
v -8.96 -33.6 0
v -9.28 -33.6 0
v -9.28 -33.28 0
v -8.96 -33.28 0
v -8.96 -33.92 0
v -9.28 -33.92 0
v -9.28 -33.6 0
v -8.96 -33.6 0
v -8.96 -34.24 0
v -9.28 -34.24 0
v -9.28 -33.92 0
v -8.96 -33.92 0
v -8.96 -34.56 0
v -9.28 -34.56 0
v -9.28 -34.24 0
v -8.96 -34.24 0
v -8.96 -34.88 0
v -9.28 -34.88 0
v -9.28 -34.56 0
v -8.96 -34.56 0

# Texture cooridinates (Count = 8)
vt 0.4444444 0.1538461
vt 0.5555556 0.1538461
vt 0.5555556 0.1794872
vt 0.4444444 0.1794872
vt 0.5555556 0.2051282
vt 0.4444444 0.2051282
vt 0.5555556 0.2307692
vt 0.4444444 0.2307692

# Normal
vn 0 0 -1

# Mesh description
g Jungle2_mesh_0003

# Faces
f 1/1/1 2/2/1 3/3/1 4/4/1
f 5/4/1 6/3/1 7/5/1 8/6/1
f 9/6/1 10/5/1 11/7/1 12/8/1
f 13/1/1 14/2/1 15/3/1 16/4/1
f 17/4/1 18/3/1 19/5/1 20/6/1
f 21/4/1 22/3/1 23/5/1 24/6/1
f 25/1/1 26/2/1 27/3/1 28/4/1
f 29/1/1 30/2/1 31/3/1 32/4/1
f 33/6/1 34/5/1 35/7/1 36/8/1
f 37/6/1 38/5/1 39/7/1 40/8/1
f 41/4/1 42/3/1 43/5/1 44/6/1
f 45/4/1 46/3/1 47/5/1 48/6/1
f 49/1/1 50/2/1 51/3/1 52/4/1
f 53/1/1 54/2/1 55/3/1 56/4/1
f 57/6/1 58/5/1 59/7/1 60/8/1
f 61/6/1 62/5/1 63/7/1 64/8/1
f 65/4/1 66/3/1 67/5/1 68/6/1
f 69/4/1 70/3/1 71/5/1 72/6/1
f 73/1/1 74/2/1 75/3/1 76/4/1
f 77/1/1 78/2/1 79/3/1 80/4/1
f 81/6/1 82/5/1 83/7/1 84/8/1
f 85/6/1 86/5/1 87/7/1 88/8/1
f 89/4/1 90/3/1 91/5/1 92/6/1
f 93/4/1 94/3/1 95/5/1 96/6/1
f 97/1/1 98/2/1 99/3/1 100/4/1
f 101/1/1 102/2/1 103/3/1 104/4/1
f 105/6/1 106/5/1 107/7/1 108/8/1
f 109/4/1 110/3/1 111/5/1 112/6/1
f 113/4/1 114/3/1 115/5/1 116/6/1
f 117/1/1 118/2/1 119/3/1 120/4/1
f 121/1/1 122/2/1 123/3/1 124/4/1
f 125/6/1 126/5/1 127/7/1 128/8/1
f 129/6/1 130/5/1 131/7/1 132/8/1
f 133/4/1 134/3/1 135/5/1 136/6/1
f 137/4/1 138/3/1 139/5/1 140/6/1
f 141/1/1 142/2/1 143/3/1 144/4/1
f 145/1/1 146/2/1 147/3/1 148/4/1
f 149/6/1 150/5/1 151/7/1 152/8/1
f 153/6/1 154/5/1 155/7/1 156/8/1
f 157/4/1 158/3/1 159/5/1 160/6/1
f 161/4/1 162/3/1 163/5/1 164/6/1
f 165/1/1 166/2/1 167/3/1 168/4/1
f 169/1/1 170/2/1 171/3/1 172/4/1
f 173/6/1 174/5/1 175/7/1 176/8/1
f 177/6/1 178/5/1 179/7/1 180/8/1
f 181/4/1 182/3/1 183/5/1 184/6/1
f 185/4/1 186/3/1 187/5/1 188/6/1
f 189/1/1 190/2/1 191/3/1 192/4/1
f 193/1/1 194/2/1 195/3/1 196/4/1
f 197/4/1 198/3/1 199/5/1 200/6/1
f 201/4/1 202/3/1 203/5/1 204/6/1
f 205/1/1 206/2/1 207/3/1 208/4/1
f 209/1/1 210/2/1 211/3/1 212/4/1
f 213/6/1 214/5/1 215/7/1 216/8/1
f 217/1/1 218/2/1 219/3/1 220/4/1
f 221/4/1 222/3/1 223/5/1 224/6/1
f 225/6/1 226/5/1 227/7/1 228/8/1
f 229/1/1 230/2/1 231/3/1 232/4/1
f 233/4/1 234/3/1 235/5/1 236/6/1
f 237/6/1 238/5/1 239/7/1 240/8/1
f 241/1/1 242/2/1 243/3/1 244/4/1
f 245/4/1 246/3/1 247/5/1 248/6/1
f 249/6/1 250/5/1 251/7/1 252/8/1
f 253/1/1 254/2/1 255/3/1 256/4/1
f 257/4/1 258/3/1 259/5/1 260/6/1
f 261/6/1 262/5/1 263/7/1 264/8/1
f 265/1/1 266/2/1 267/3/1 268/4/1
f 269/4/1 270/3/1 271/5/1 272/6/1
f 273/6/1 274/5/1 275/7/1 276/8/1
f 277/1/1 278/2/1 279/3/1 280/4/1
f 281/4/1 282/3/1 283/5/1 284/6/1
f 285/4/1 286/3/1 287/5/1 288/6/1
f 289/1/1 290/2/1 291/3/1 292/4/1
f 293/1/1 294/2/1 295/3/1 296/4/1
f 297/6/1 298/5/1 299/7/1 300/8/1
f 301/6/1 302/5/1 303/7/1 304/8/1
f 305/4/1 306/3/1 307/5/1 308/6/1
f 309/4/1 310/3/1 311/5/1 312/6/1
f 313/1/1 314/2/1 315/3/1 316/4/1
f 317/1/1 318/2/1 319/3/1 320/4/1
f 321/6/1 322/5/1 323/7/1 324/8/1
f 325/6/1 326/5/1 327/7/1 328/8/1
f 329/4/1 330/3/1 331/5/1 332/6/1
f 333/4/1 334/3/1 335/5/1 336/6/1
f 337/1/1 338/2/1 339/3/1 340/4/1
f 341/1/1 342/2/1 343/3/1 344/4/1
f 345/6/1 346/5/1 347/7/1 348/8/1
f 349/6/1 350/5/1 351/7/1 352/8/1
f 353/4/1 354/3/1 355/5/1 356/6/1
f 357/4/1 358/3/1 359/5/1 360/6/1
f 361/1/1 362/2/1 363/3/1 364/4/1
f 365/1/1 366/2/1 367/3/1 368/4/1
f 369/6/1 370/5/1 371/7/1 372/8/1
f 373/4/1 374/3/1 375/5/1 376/6/1
f 377/4/1 378/3/1 379/5/1 380/6/1
f 381/1/1 382/2/1 383/3/1 384/4/1
f 385/1/1 386/2/1 387/3/1 388/4/1
f 389/6/1 390/5/1 391/7/1 392/8/1
f 393/6/1 394/5/1 395/7/1 396/8/1
f 397/4/1 398/3/1 399/5/1 400/6/1
f 401/4/1 402/3/1 403/5/1 404/6/1
f 405/1/1 406/2/1 407/3/1 408/4/1
f 409/1/1 410/2/1 411/3/1 412/4/1
f 413/6/1 414/5/1 415/7/1 416/8/1
f 417/6/1 418/5/1 419/7/1 420/8/1
f 421/4/1 422/3/1 423/5/1 424/6/1
f 425/4/1 426/3/1 427/5/1 428/6/1
f 429/1/1 430/2/1 431/3/1 432/4/1
f 433/1/1 434/2/1 435/3/1 436/4/1
f 437/6/1 438/5/1 439/7/1 440/8/1
f 441/6/1 442/5/1 443/7/1 444/8/1
f 445/4/1 446/3/1 447/5/1 448/6/1
f 449/4/1 450/3/1 451/5/1 452/6/1
f 453/1/1 454/2/1 455/3/1 456/4/1
f 457/1/1 458/2/1 459/3/1 460/4/1
f 461/4/1 462/3/1 463/5/1 464/6/1
f 465/6/1 466/5/1 467/7/1 468/8/1
f 469/1/1 470/2/1 471/3/1 472/4/1
f 473/4/1 474/3/1 475/5/1 476/6/1
f 477/6/1 478/5/1 479/7/1 480/8/1
f 481/1/1 482/2/1 483/3/1 484/4/1
f 485/4/1 486/3/1 487/5/1 488/6/1
f 489/6/1 490/5/1 491/7/1 492/8/1
f 493/1/1 494/2/1 495/3/1 496/4/1
f 497/4/1 498/3/1 499/5/1 500/6/1
f 501/6/1 502/5/1 503/7/1 504/8/1
f 505/1/1 506/2/1 507/3/1 508/4/1
f 509/4/1 510/3/1 511/5/1 512/6/1
f 513/6/1 514/5/1 515/7/1 516/8/1
f 517/1/1 518/2/1 519/3/1 520/4/1
f 521/4/1 522/3/1 523/5/1 524/6/1
f 525/6/1 526/5/1 527/7/1 528/8/1
f 529/1/1 530/2/1 531/3/1 532/4/1
f 533/4/1 534/3/1 535/5/1 536/6/1
f 537/4/1 538/3/1 539/5/1 540/6/1
f 541/1/1 542/2/1 543/3/1 544/4/1
f 545/1/1 546/2/1 547/3/1 548/4/1
f 549/4/1 550/3/1 551/5/1 552/6/1
f 553/1/1 554/2/1 555/3/1 556/4/1
f 557/1/1 558/2/1 559/3/1 560/4/1
f 561/6/1 562/5/1 563/7/1 564/8/1
f 565/6/1 566/5/1 567/7/1 568/8/1
f 569/4/1 570/3/1 571/5/1 572/6/1
f 573/4/1 574/3/1 575/5/1 576/6/1
f 577/1/1 578/2/1 579/3/1 580/4/1
f 581/1/1 582/2/1 583/3/1 584/4/1
f 585/6/1 586/5/1 587/7/1 588/8/1
f 589/6/1 590/5/1 591/7/1 592/8/1
f 593/4/1 594/3/1 595/5/1 596/6/1
f 597/4/1 598/3/1 599/5/1 600/6/1
f 601/1/1 602/2/1 603/3/1 604/4/1
f 605/1/1 606/2/1 607/3/1 608/4/1
f 609/6/1 610/5/1 611/7/1 612/8/1
f 613/6/1 614/5/1 615/7/1 616/8/1
f 617/4/1 618/3/1 619/5/1 620/6/1
f 621/4/1 622/3/1 623/5/1 624/6/1
f 625/1/1 626/2/1 627/3/1 628/4/1
f 629/1/1 630/2/1 631/3/1 632/4/1
f 633/6/1 634/5/1 635/7/1 636/8/1
f 637/4/1 638/3/1 639/5/1 640/6/1
f 641/4/1 642/3/1 643/5/1 644/6/1
f 645/1/1 646/2/1 647/3/1 648/4/1
f 649/1/1 650/2/1 651/3/1 652/4/1
f 653/6/1 654/5/1 655/7/1 656/8/1
f 657/6/1 658/5/1 659/7/1 660/8/1
f 661/4/1 662/3/1 663/5/1 664/6/1
f 665/4/1 666/3/1 667/5/1 668/6/1
f 669/1/1 670/2/1 671/3/1 672/4/1
f 673/1/1 674/2/1 675/3/1 676/4/1
f 677/6/1 678/5/1 679/7/1 680/8/1
f 681/6/1 682/5/1 683/7/1 684/8/1
f 685/4/1 686/3/1 687/5/1 688/6/1
f 689/4/1 690/3/1 691/5/1 692/6/1
f 693/1/1 694/2/1 695/3/1 696/4/1
f 697/1/1 698/2/1 699/3/1 700/4/1
f 701/4/1 702/3/1 703/5/1 704/6/1
f 705/6/1 706/5/1 707/7/1 708/8/1
f 709/6/1 710/5/1 711/7/1 712/8/1
f 713/1/1 714/2/1 715/3/1 716/4/1
f 717/4/1 718/3/1 719/5/1 720/6/1
f 721/4/1 722/3/1 723/5/1 724/6/1
f 725/6/1 726/5/1 727/7/1 728/8/1
f 729/1/1 730/2/1 731/3/1 732/4/1
f 733/1/1 734/2/1 735/3/1 736/4/1
f 737/4/1 738/3/1 739/5/1 740/6/1
f 741/6/1 742/5/1 743/7/1 744/8/1
f 745/1/1 746/2/1 747/3/1 748/4/1
f 749/4/1 750/3/1 751/5/1 752/6/1
f 753/6/1 754/5/1 755/7/1 756/8/1
f 757/1/1 758/2/1 759/3/1 760/4/1
f 761/4/1 762/3/1 763/5/1 764/6/1
f 765/6/1 766/5/1 767/7/1 768/8/1
f 769/1/1 770/2/1 771/3/1 772/4/1
f 773/4/1 774/3/1 775/5/1 776/6/1
f 777/6/1 778/5/1 779/7/1 780/8/1
f 781/1/1 782/2/1 783/3/1 784/4/1
f 785/4/1 786/3/1 787/5/1 788/6/1
f 789/6/1 790/5/1 791/7/1 792/8/1
f 793/1/1 794/2/1 795/3/1 796/4/1
f 797/4/1 798/3/1 799/5/1 800/6/1
f 801/1/1 802/2/1 803/3/1 804/4/1
f 805/6/1 806/5/1 807/7/1 808/8/1
f 809/4/1 810/3/1 811/5/1 812/6/1
f 813/1/1 814/2/1 815/3/1 816/4/1
f 817/6/1 818/5/1 819/7/1 820/8/1
f 821/4/1 822/3/1 823/5/1 824/6/1
f 825/1/1 826/2/1 827/3/1 828/4/1
f 829/6/1 830/5/1 831/7/1 832/8/1
f 833/4/1 834/3/1 835/5/1 836/6/1
f 837/1/1 838/2/1 839/3/1 840/4/1

