# Tiled2Unity generated file. Do not modify by hand.
# Wavefront file for 'Jungle2_mesh_0007.obj'

# Vertices (Count = 604)
v -21.76 -26.56 0
v -22.08 -26.56 0
v -22.08 -26.24 0
v -21.76 -26.24 0
v -22.08 -26.56 0
v -22.4 -26.56 0
v -22.4 -26.24 0
v -22.08 -26.24 0
v -21.44 -26.88 0
v -21.76 -26.88 0
v -21.76 -26.56 0
v -21.44 -26.56 0
v -21.76 -26.88 0
v -22.08 -26.88 0
v -22.08 -26.56 0
v -21.76 -26.56 0
v -22.08 -26.88 0
v -22.4 -26.88 0
v -22.4 -26.56 0
v -22.08 -26.56 0
v -22.4 -26.88 0
v -22.72 -26.88 0
v -22.72 -26.56 0
v -22.4 -26.56 0
v -22.72 -26.88 0
v -23.04 -26.88 0
v -23.04 -26.56 0
v -22.72 -26.56 0
v -23.04 -26.88 0
v -23.36 -26.88 0
v -23.36 -26.56 0
v -23.04 -26.56 0
v -23.36 -26.88 0
v -23.68 -26.88 0
v -23.68 -26.56 0
v -23.36 -26.56 0
v -24.64 -26.88 0
v -24.96 -26.88 0
v -24.96 -26.56 0
v -24.64 -26.56 0
v -24.96 -26.88 0
v -25.28 -26.88 0
v -25.28 -26.56 0
v -24.96 -26.56 0
v -25.28 -26.88 0
v -25.6 -26.88 0
v -25.6 -26.56 0
v -25.28 -26.56 0
v -25.6 -26.88 0
v -25.92 -26.88 0
v -25.92 -26.56 0
v -25.6 -26.56 0
v -21.44 -27.2 0
v -21.76 -27.2 0
v -21.76 -26.88 0
v -21.44 -26.88 0
v -21.76 -27.2 0
v -22.08 -27.2 0
v -22.08 -26.88 0
v -21.76 -26.88 0
v -22.08 -27.2 0
v -22.4 -27.2 0
v -22.4 -26.88 0
v -22.08 -26.88 0
v -22.4 -27.2 0
v -22.72 -27.2 0
v -22.72 -26.88 0
v -22.4 -26.88 0
v -22.72 -27.2 0
v -23.04 -27.2 0
v -23.04 -26.88 0
v -22.72 -26.88 0
v -23.04 -27.2 0
v -23.36 -27.2 0
v -23.36 -26.88 0
v -23.04 -26.88 0
v -23.36 -27.2 0
v -23.68 -27.2 0
v -23.68 -26.88 0
v -23.36 -26.88 0
v -23.68 -27.2 0
v -24 -27.2 0
v -24 -26.88 0
v -23.68 -26.88 0
v -24 -27.2 0
v -24.32 -27.2 0
v -24.32 -26.88 0
v -24 -26.88 0
v -24.32 -27.2 0
v -24.64 -27.2 0
v -24.64 -26.88 0
v -24.32 -26.88 0
v -24.64 -27.2 0
v -24.96 -27.2 0
v -24.96 -26.88 0
v -24.64 -26.88 0
v -24.96 -27.2 0
v -25.28 -27.2 0
v -25.28 -26.88 0
v -24.96 -26.88 0
v -25.28 -27.2 0
v -25.6 -27.2 0
v -25.6 -26.88 0
v -25.28 -26.88 0
v -25.6 -27.2 0
v -25.92 -27.2 0
v -25.92 -26.88 0
v -25.6 -26.88 0
v -21.76 -27.52 0
v -22.08 -27.52 0
v -22.08 -27.2 0
v -21.76 -27.2 0
v -22.08 -27.52 0
v -22.4 -27.52 0
v -22.4 -27.2 0
v -22.08 -27.2 0
v -22.4 -27.52 0
v -22.72 -27.52 0
v -22.72 -27.2 0
v -22.4 -27.2 0
v -22.72 -27.52 0
v -23.04 -27.52 0
v -23.04 -27.2 0
v -22.72 -27.2 0
v -23.04 -27.52 0
v -23.36 -27.52 0
v -23.36 -27.2 0
v -23.04 -27.2 0
v -23.36 -27.52 0
v -23.68 -27.52 0
v -23.68 -27.2 0
v -23.36 -27.2 0
v -23.68 -27.52 0
v -24 -27.52 0
v -24 -27.2 0
v -23.68 -27.2 0
v -24 -27.52 0
v -24.32 -27.52 0
v -24.32 -27.2 0
v -24 -27.2 0
v -24.32 -27.52 0
v -24.64 -27.52 0
v -24.64 -27.2 0
v -24.32 -27.2 0
v -24.64 -27.52 0
v -24.96 -27.52 0
v -24.96 -27.2 0
v -24.64 -27.2 0
v -24.96 -27.52 0
v -25.28 -27.52 0
v -25.28 -27.2 0
v -24.96 -27.2 0
v -25.28 -27.52 0
v -25.6 -27.52 0
v -25.6 -27.2 0
v -25.28 -27.2 0
v -25.6 -27.52 0
v -25.92 -27.52 0
v -25.92 -27.2 0
v -25.6 -27.2 0
v -25.92 -27.52 0
v -26.24 -27.52 0
v -26.24 -27.2 0
v -25.92 -27.2 0
v -21.44 -27.84 0
v -21.76 -27.84 0
v -21.76 -27.52 0
v -21.44 -27.52 0
v -21.76 -27.84 0
v -22.08 -27.84 0
v -22.08 -27.52 0
v -21.76 -27.52 0
v -22.08 -27.84 0
v -22.4 -27.84 0
v -22.4 -27.52 0
v -22.08 -27.52 0
v -22.4 -27.84 0
v -22.72 -27.84 0
v -22.72 -27.52 0
v -22.4 -27.52 0
v -22.72 -27.84 0
v -23.04 -27.84 0
v -23.04 -27.52 0
v -22.72 -27.52 0
v -23.04 -27.84 0
v -23.36 -27.84 0
v -23.36 -27.52 0
v -23.04 -27.52 0
v -23.36 -27.84 0
v -23.68 -27.84 0
v -23.68 -27.52 0
v -23.36 -27.52 0
v -23.68 -27.84 0
v -24 -27.84 0
v -24 -27.52 0
v -23.68 -27.52 0
v -24 -27.84 0
v -24.32 -27.84 0
v -24.32 -27.52 0
v -24 -27.52 0
v -24.32 -27.84 0
v -24.64 -27.84 0
v -24.64 -27.52 0
v -24.32 -27.52 0
v -24.64 -27.84 0
v -24.96 -27.84 0
v -24.96 -27.52 0
v -24.64 -27.52 0
v -24.96 -27.84 0
v -25.28 -27.84 0
v -25.28 -27.52 0
v -24.96 -27.52 0
v -25.28 -27.84 0
v -25.6 -27.84 0
v -25.6 -27.52 0
v -25.28 -27.52 0
v -25.6 -27.84 0
v -25.92 -27.84 0
v -25.92 -27.52 0
v -25.6 -27.52 0
v -21.12 -28.16 0
v -21.44 -28.16 0
v -21.44 -27.84 0
v -21.12 -27.84 0
v -21.44 -28.16 0
v -21.76 -28.16 0
v -21.76 -27.84 0
v -21.44 -27.84 0
v -21.76 -28.16 0
v -22.08 -28.16 0
v -22.08 -27.84 0
v -21.76 -27.84 0
v -22.08 -28.16 0
v -22.4 -28.16 0
v -22.4 -27.84 0
v -22.08 -27.84 0
v -22.4 -28.16 0
v -22.72 -28.16 0
v -22.72 -27.84 0
v -22.4 -27.84 0
v -22.72 -28.16 0
v -23.04 -28.16 0
v -23.04 -27.84 0
v -22.72 -27.84 0
v -23.04 -28.16 0
v -23.36 -28.16 0
v -23.36 -27.84 0
v -23.04 -27.84 0
v -23.36 -28.16 0
v -23.68 -28.16 0
v -23.68 -27.84 0
v -23.36 -27.84 0
v -23.68 -28.16 0
v -24 -28.16 0
v -24 -27.84 0
v -23.68 -27.84 0
v -24 -28.16 0
v -24.32 -28.16 0
v -24.32 -27.84 0
v -24 -27.84 0
v -24.32 -28.16 0
v -24.64 -28.16 0
v -24.64 -27.84 0
v -24.32 -27.84 0
v -24.64 -28.16 0
v -24.96 -28.16 0
v -24.96 -27.84 0
v -24.64 -27.84 0
v -24.96 -28.16 0
v -25.28 -28.16 0
v -25.28 -27.84 0
v -24.96 -27.84 0
v -25.28 -28.16 0
v -25.6 -28.16 0
v -25.6 -27.84 0
v -25.28 -27.84 0
v -25.6 -28.16 0
v -25.92 -28.16 0
v -25.92 -27.84 0
v -25.6 -27.84 0
v -21.12 -28.48 0
v -21.44 -28.48 0
v -21.44 -28.16 0
v -21.12 -28.16 0
v -21.44 -28.48 0
v -21.76 -28.48 0
v -21.76 -28.16 0
v -21.44 -28.16 0
v -21.76 -28.48 0
v -22.08 -28.48 0
v -22.08 -28.16 0
v -21.76 -28.16 0
v -22.08 -28.48 0
v -22.4 -28.48 0
v -22.4 -28.16 0
v -22.08 -28.16 0
v -22.4 -28.48 0
v -22.72 -28.48 0
v -22.72 -28.16 0
v -22.4 -28.16 0
v -22.72 -28.48 0
v -23.04 -28.48 0
v -23.04 -28.16 0
v -22.72 -28.16 0
v -23.04 -28.48 0
v -23.36 -28.48 0
v -23.36 -28.16 0
v -23.04 -28.16 0
v -23.36 -28.48 0
v -23.68 -28.48 0
v -23.68 -28.16 0
v -23.36 -28.16 0
v -23.68 -28.48 0
v -24 -28.48 0
v -24 -28.16 0
v -23.68 -28.16 0
v -24 -28.48 0
v -24.32 -28.48 0
v -24.32 -28.16 0
v -24 -28.16 0
v -24.32 -28.48 0
v -24.64 -28.48 0
v -24.64 -28.16 0
v -24.32 -28.16 0
v -24.64 -28.48 0
v -24.96 -28.48 0
v -24.96 -28.16 0
v -24.64 -28.16 0
v -24.96 -28.48 0
v -25.28 -28.48 0
v -25.28 -28.16 0
v -24.96 -28.16 0
v -25.28 -28.48 0
v -25.6 -28.48 0
v -25.6 -28.16 0
v -25.28 -28.16 0
v -25.6 -28.48 0
v -25.92 -28.48 0
v -25.92 -28.16 0
v -25.6 -28.16 0
v -25.92 -28.48 0
v -26.24 -28.48 0
v -26.24 -28.16 0
v -25.92 -28.16 0
v -21.44 -28.8 0
v -21.76 -28.8 0
v -21.76 -28.48 0
v -21.44 -28.48 0
v -21.76 -28.8 0
v -22.08 -28.8 0
v -22.08 -28.48 0
v -21.76 -28.48 0
v -22.08 -28.8 0
v -22.4 -28.8 0
v -22.4 -28.48 0
v -22.08 -28.48 0
v -22.4 -28.8 0
v -22.72 -28.8 0
v -22.72 -28.48 0
v -22.4 -28.48 0
v -22.72 -28.8 0
v -23.04 -28.8 0
v -23.04 -28.48 0
v -22.72 -28.48 0
v -23.04 -28.8 0
v -23.36 -28.8 0
v -23.36 -28.48 0
v -23.04 -28.48 0
v -23.36 -28.8 0
v -23.68 -28.8 0
v -23.68 -28.48 0
v -23.36 -28.48 0
v -23.68 -28.8 0
v -24 -28.8 0
v -24 -28.48 0
v -23.68 -28.48 0
v -24 -28.8 0
v -24.32 -28.8 0
v -24.32 -28.48 0
v -24 -28.48 0
v -24.32 -28.8 0
v -24.64 -28.8 0
v -24.64 -28.48 0
v -24.32 -28.48 0
v -24.64 -28.8 0
v -24.96 -28.8 0
v -24.96 -28.48 0
v -24.64 -28.48 0
v -24.96 -28.8 0
v -25.28 -28.8 0
v -25.28 -28.48 0
v -24.96 -28.48 0
v -25.28 -28.8 0
v -25.6 -28.8 0
v -25.6 -28.48 0
v -25.28 -28.48 0
v -25.6 -28.8 0
v -25.92 -28.8 0
v -25.92 -28.48 0
v -25.6 -28.48 0
v -25.92 -28.8 0
v -26.24 -28.8 0
v -26.24 -28.48 0
v -25.92 -28.48 0
v -26.24 -28.8 0
v -26.56 -28.8 0
v -26.56 -28.48 0
v -26.24 -28.48 0
v -22.08 -29.12 0
v -22.4 -29.12 0
v -22.4 -28.8 0
v -22.08 -28.8 0
v -22.4 -29.12 0
v -22.72 -29.12 0
v -22.72 -28.8 0
v -22.4 -28.8 0
v -22.72 -29.12 0
v -23.04 -29.12 0
v -23.04 -28.8 0
v -22.72 -28.8 0
v -23.04 -29.12 0
v -23.36 -29.12 0
v -23.36 -28.8 0
v -23.04 -28.8 0
v -23.36 -29.12 0
v -23.68 -29.12 0
v -23.68 -28.8 0
v -23.36 -28.8 0
v -23.68 -29.12 0
v -24 -29.12 0
v -24 -28.8 0
v -23.68 -28.8 0
v -24 -29.12 0
v -24.32 -29.12 0
v -24.32 -28.8 0
v -24 -28.8 0
v -24.32 -29.12 0
v -24.64 -29.12 0
v -24.64 -28.8 0
v -24.32 -28.8 0
v -24.64 -29.12 0
v -24.96 -29.12 0
v -24.96 -28.8 0
v -24.64 -28.8 0
v -24.96 -29.12 0
v -25.28 -29.12 0
v -25.28 -28.8 0
v -24.96 -28.8 0
v -25.28 -29.12 0
v -25.6 -29.12 0
v -25.6 -28.8 0
v -25.28 -28.8 0
v -25.6 -29.12 0
v -25.92 -29.12 0
v -25.92 -28.8 0
v -25.6 -28.8 0
v -25.92 -29.12 0
v -26.24 -29.12 0
v -26.24 -28.8 0
v -25.92 -28.8 0
v -26.24 -29.12 0
v -26.56 -29.12 0
v -26.56 -28.8 0
v -26.24 -28.8 0
v -22.4 -29.44 0
v -22.72 -29.44 0
v -22.72 -29.12 0
v -22.4 -29.12 0
v -22.72 -29.44 0
v -23.04 -29.44 0
v -23.04 -29.12 0
v -22.72 -29.12 0
v -23.04 -29.44 0
v -23.36 -29.44 0
v -23.36 -29.12 0
v -23.04 -29.12 0
v -23.36 -29.44 0
v -23.68 -29.44 0
v -23.68 -29.12 0
v -23.36 -29.12 0
v -23.68 -29.44 0
v -24 -29.44 0
v -24 -29.12 0
v -23.68 -29.12 0
v -24 -29.44 0
v -24.32 -29.44 0
v -24.32 -29.12 0
v -24 -29.12 0
v -24.32 -29.44 0
v -24.64 -29.44 0
v -24.64 -29.12 0
v -24.32 -29.12 0
v -24.64 -29.44 0
v -24.96 -29.44 0
v -24.96 -29.12 0
v -24.64 -29.12 0
v -24.96 -29.44 0
v -25.28 -29.44 0
v -25.28 -29.12 0
v -24.96 -29.12 0
v -25.28 -29.44 0
v -25.6 -29.44 0
v -25.6 -29.12 0
v -25.28 -29.12 0
v -25.6 -29.44 0
v -25.92 -29.44 0
v -25.92 -29.12 0
v -25.6 -29.12 0
v -25.92 -29.44 0
v -26.24 -29.44 0
v -26.24 -29.12 0
v -25.92 -29.12 0
v -22.72 -29.76 0
v -23.04 -29.76 0
v -23.04 -29.44 0
v -22.72 -29.44 0
v -23.04 -29.76 0
v -23.36 -29.76 0
v -23.36 -29.44 0
v -23.04 -29.44 0
v -23.36 -29.76 0
v -23.68 -29.76 0
v -23.68 -29.44 0
v -23.36 -29.44 0
v -23.68 -29.76 0
v -24 -29.76 0
v -24 -29.44 0
v -23.68 -29.44 0
v -24 -29.76 0
v -24.32 -29.76 0
v -24.32 -29.44 0
v -24 -29.44 0
v -25.28 -29.76 0
v -25.6 -29.76 0
v -25.6 -29.44 0
v -25.28 -29.44 0
v -25.6 -29.76 0
v -25.92 -29.76 0
v -25.92 -29.44 0
v -25.6 -29.44 0
v -25.92 -29.76 0
v -26.24 -29.76 0
v -26.24 -29.44 0
v -25.92 -29.44 0
v -25.6 -30.08 0
v -25.92 -30.08 0
v -25.92 -29.76 0
v -25.6 -29.76 0
v -24 -31.36 0
v -24.32 -31.36 0
v -24.32 -31.04 0
v -24 -31.04 0
v -24.32 -31.36 0
v -24.64 -31.36 0
v -24.64 -31.04 0
v -24.32 -31.04 0
v -24.64 -31.36 0
v -24.96 -31.36 0
v -24.96 -31.04 0
v -24.64 -31.04 0
v -23.68 -31.68 0
v -24 -31.68 0
v -24 -31.36 0
v -23.68 -31.36 0
v -24 -31.68 0
v -24.32 -31.68 0
v -24.32 -31.36 0
v -24 -31.36 0
v -24.32 -31.68 0
v -24.64 -31.68 0
v -24.64 -31.36 0
v -24.32 -31.36 0
v -24.64 -31.68 0
v -24.96 -31.68 0
v -24.96 -31.36 0
v -24.64 -31.36 0
v -22.4 -32 0
v -22.72 -32 0
v -22.72 -31.68 0
v -22.4 -31.68 0
v -22.72 -32 0
v -23.04 -32 0
v -23.04 -31.68 0
v -22.72 -31.68 0
v -23.04 -32 0
v -23.36 -32 0
v -23.36 -31.68 0
v -23.04 -31.68 0
v -22.4 -32.32 0
v -22.72 -32.32 0
v -22.72 -32 0
v -22.4 -32 0
v -22.72 -32.32 0
v -23.04 -32.32 0
v -23.04 -32 0
v -22.72 -32 0
v -23.04 -32.32 0
v -23.36 -32.32 0
v -23.36 -32 0
v -23.04 -32 0
v -23.36 -32.32 0
v -23.68 -32.32 0
v -23.68 -32 0
v -23.36 -32 0

# Texture cooridinates (Count = 42)
vt 0.85 0.1818182
vt 0.9 0.1818182
vt 0.9 0.2727273
vt 0.85 0.2727273
vt 0.8 0.09090906
vt 0.85 0.09090906
vt 0.8 0.1818182
vt 0.9 0.09090906
vt 0.85 0.3636364
vt 0.9 0.3636364
vt 0.9 0.4545454
vt 0.85 0.4545454
vt 0.8 0.3636364
vt 0.8 0.4545454
vt 0.8 0.2727273
vt 0.95 0.09090906
vt 0.95 0.1818182
vt 0.85 0
vt 0.9 0
vt 0.75 0.5454545
vt 0.8 0.5454545
vt 0.8 0.6363636
vt 0.75 0.6363636
vt 0.85 0.5454545
vt 0.85 0.6363636
vt 0.9 0.5454545
vt 0.9 0.6363636
vt 0.7 0.4545454
vt 0.75 0.4545454
vt 0.7 0.5454545
vt 0.5 0.5454545
vt 0.55 0.5454545
vt 0.55 0.6363636
vt 0.5 0.6363636
vt 0.6 0.5454545
vt 0.6 0.6363636
vt 0.65 0.5454545
vt 0.65 0.6363636
vt 0.5 0.4545454
vt 0.55 0.4545454
vt 0.6 0.4545454
vt 0.65 0.4545454

# Normal
vn 0 0 -1

# Mesh description
g Jungle2_mesh_0007

# Faces
f 1/1/1 2/2/1 3/3/1 4/4/1
f 5/1/1 6/2/1 7/3/1 8/4/1
f 9/5/1 10/6/1 11/1/1 12/7/1
f 13/6/1 14/8/1 15/2/1 16/1/1
f 17/6/1 18/8/1 19/2/1 20/1/1
f 21/9/1 22/10/1 23/11/1 24/12/1
f 25/1/1 26/2/1 27/3/1 28/4/1
f 29/1/1 30/2/1 31/3/1 32/4/1
f 33/1/1 34/2/1 35/3/1 36/4/1
f 37/1/1 38/2/1 39/3/1 40/4/1
f 41/13/1 42/9/1 43/12/1 44/14/1
f 45/6/1 46/8/1 47/2/1 48/1/1
f 49/9/1 50/10/1 51/11/1 52/12/1
f 53/5/1 54/6/1 55/1/1 56/7/1
f 57/6/1 58/8/1 59/2/1 60/1/1
f 61/6/1 62/8/1 63/2/1 64/1/1
f 65/6/1 66/8/1 67/2/1 68/1/1
f 69/6/1 70/8/1 71/2/1 72/1/1
f 73/6/1 74/8/1 75/2/1 76/1/1
f 77/6/1 78/8/1 79/2/1 80/1/1
f 81/9/1 82/10/1 83/11/1 84/12/1
f 85/1/1 86/2/1 87/3/1 88/4/1
f 89/13/1 90/9/1 91/12/1 92/14/1
f 93/6/1 94/8/1 95/2/1 96/1/1
f 97/6/1 98/8/1 99/2/1 100/1/1
f 101/6/1 102/8/1 103/2/1 104/1/1
f 105/6/1 106/8/1 107/2/1 108/1/1
f 109/15/1 110/4/1 111/9/1 112/13/1
f 113/6/1 114/8/1 115/2/1 116/1/1
f 117/6/1 118/8/1 119/2/1 120/1/1
f 121/6/1 122/8/1 123/2/1 124/1/1
f 125/6/1 126/8/1 127/2/1 128/1/1
f 129/6/1 130/8/1 131/2/1 132/1/1
f 133/6/1 134/8/1 135/2/1 136/1/1
f 137/6/1 138/8/1 139/2/1 140/1/1
f 141/6/1 142/8/1 143/2/1 144/1/1
f 145/6/1 146/8/1 147/2/1 148/1/1
f 149/6/1 150/8/1 151/2/1 152/1/1
f 153/6/1 154/8/1 155/2/1 156/1/1
f 157/6/1 158/8/1 159/2/1 160/1/1
f 161/8/1 162/16/1 163/17/1 164/2/1
f 165/1/1 166/2/1 167/3/1 168/4/1
f 169/13/1 170/9/1 171/12/1 172/14/1
f 173/6/1 174/8/1 175/2/1 176/1/1
f 177/6/1 178/8/1 179/2/1 180/1/1
f 181/6/1 182/8/1 183/2/1 184/1/1
f 185/6/1 186/8/1 187/2/1 188/1/1
f 189/6/1 190/8/1 191/2/1 192/1/1
f 193/6/1 194/8/1 195/2/1 196/1/1
f 197/6/1 198/8/1 199/2/1 200/1/1
f 201/6/1 202/8/1 203/2/1 204/1/1
f 205/6/1 206/8/1 207/2/1 208/1/1
f 209/6/1 210/8/1 211/2/1 212/1/1
f 213/6/1 214/8/1 215/2/1 216/1/1
f 217/4/1 218/3/1 219/10/1 220/9/1
f 221/13/1 222/9/1 223/12/1 224/14/1
f 225/6/1 226/8/1 227/2/1 228/1/1
f 229/6/1 230/8/1 231/2/1 232/1/1
f 233/6/1 234/8/1 235/2/1 236/1/1
f 237/6/1 238/8/1 239/2/1 240/1/1
f 241/6/1 242/8/1 243/2/1 244/1/1
f 245/6/1 246/8/1 247/2/1 248/1/1
f 249/6/1 250/8/1 251/2/1 252/1/1
f 253/6/1 254/8/1 255/2/1 256/1/1
f 257/6/1 258/8/1 259/2/1 260/1/1
f 261/6/1 262/8/1 263/2/1 264/1/1
f 265/6/1 266/8/1 267/2/1 268/1/1
f 269/6/1 270/8/1 271/2/1 272/1/1
f 273/6/1 274/8/1 275/2/1 276/1/1
f 277/9/1 278/10/1 279/11/1 280/12/1
f 281/15/1 282/4/1 283/9/1 284/13/1
f 285/6/1 286/8/1 287/2/1 288/1/1
f 289/6/1 290/8/1 291/2/1 292/1/1
f 293/6/1 294/8/1 295/2/1 296/1/1
f 297/6/1 298/8/1 299/2/1 300/1/1
f 301/6/1 302/8/1 303/2/1 304/1/1
f 305/6/1 306/8/1 307/2/1 308/1/1
f 309/6/1 310/8/1 311/2/1 312/1/1
f 313/6/1 314/8/1 315/2/1 316/1/1
f 317/6/1 318/8/1 319/2/1 320/1/1
f 321/6/1 322/8/1 323/2/1 324/1/1
f 325/6/1 326/8/1 327/2/1 328/1/1
f 329/6/1 330/8/1 331/2/1 332/1/1
f 333/6/1 334/8/1 335/2/1 336/1/1
f 337/6/1 338/8/1 339/2/1 340/1/1
f 341/9/1 342/10/1 343/11/1 344/12/1
f 345/18/1 346/19/1 347/8/1 348/6/1
f 349/15/1 350/4/1 351/9/1 352/13/1
f 353/6/1 354/8/1 355/2/1 356/1/1
f 357/6/1 358/8/1 359/2/1 360/1/1
f 361/6/1 362/8/1 363/2/1 364/1/1
f 365/6/1 366/8/1 367/2/1 368/1/1
f 369/6/1 370/8/1 371/2/1 372/1/1
f 373/6/1 374/8/1 375/2/1 376/1/1
f 377/6/1 378/8/1 379/2/1 380/1/1
f 381/6/1 382/8/1 383/2/1 384/1/1
f 385/6/1 386/8/1 387/2/1 388/1/1
f 389/6/1 390/8/1 391/2/1 392/1/1
f 393/6/1 394/8/1 395/2/1 396/1/1
f 397/6/1 398/8/1 399/2/1 400/1/1
f 401/6/1 402/8/1 403/2/1 404/1/1
f 405/8/1 406/16/1 407/17/1 408/2/1
f 409/15/1 410/4/1 411/9/1 412/13/1
f 413/6/1 414/8/1 415/2/1 416/1/1
f 417/6/1 418/8/1 419/2/1 420/1/1
f 421/6/1 422/8/1 423/2/1 424/1/1
f 425/6/1 426/8/1 427/2/1 428/1/1
f 429/6/1 430/8/1 431/2/1 432/1/1
f 433/6/1 434/8/1 435/2/1 436/1/1
f 437/6/1 438/8/1 439/2/1 440/1/1
f 441/6/1 442/8/1 443/2/1 444/1/1
f 445/6/1 446/8/1 447/2/1 448/1/1
f 449/6/1 450/8/1 451/2/1 452/1/1
f 453/6/1 454/8/1 455/2/1 456/1/1
f 457/6/1 458/8/1 459/2/1 460/1/1
f 461/8/1 462/16/1 463/17/1 464/2/1
f 465/15/1 466/4/1 467/9/1 468/13/1
f 469/6/1 470/8/1 471/2/1 472/1/1
f 473/6/1 474/8/1 475/2/1 476/1/1
f 477/6/1 478/8/1 479/2/1 480/1/1
f 481/6/1 482/8/1 483/2/1 484/1/1
f 485/6/1 486/8/1 487/2/1 488/1/1
f 489/4/1 490/3/1 491/10/1 492/9/1
f 493/18/1 494/19/1 495/8/1 496/6/1
f 497/15/1 498/4/1 499/9/1 500/13/1
f 501/6/1 502/8/1 503/2/1 504/1/1
f 505/6/1 506/8/1 507/2/1 508/1/1
f 509/4/1 510/3/1 511/10/1 512/9/1
f 513/15/1 514/4/1 515/9/1 516/13/1
f 517/4/1 518/3/1 519/10/1 520/9/1
f 521/18/1 522/19/1 523/8/1 524/6/1
f 525/18/1 526/19/1 527/8/1 528/6/1
f 529/18/1 530/19/1 531/8/1 532/6/1
f 533/15/1 534/4/1 535/9/1 536/13/1
f 537/6/1 538/8/1 539/2/1 540/1/1
f 541/8/1 542/16/1 543/17/1 544/2/1
f 545/18/1 546/19/1 547/8/1 548/6/1
f 549/20/1 550/21/1 551/22/1 552/23/1
f 553/21/1 554/24/1 555/25/1 556/22/1
f 557/24/1 558/26/1 559/27/1 560/25/1
f 561/28/1 562/29/1 563/20/1 564/30/1
f 565/29/1 566/14/1 567/21/1 568/20/1
f 569/14/1 570/12/1 571/24/1 572/21/1
f 573/12/1 574/11/1 575/26/1 576/24/1
f 577/31/1 578/32/1 579/33/1 580/34/1
f 581/32/1 582/35/1 583/36/1 584/33/1
f 585/35/1 586/37/1 587/38/1 588/36/1
f 589/39/1 590/40/1 591/32/1 592/31/1
f 593/40/1 594/41/1 595/35/1 596/32/1
f 597/41/1 598/42/1 599/37/1 600/35/1
f 601/42/1 602/28/1 603/30/1 604/37/1

