# Tiled2Unity generated file. Do not modify by hand.
# Wavefront file for 'Jungle2_mesh_0008.obj'

# Vertices (Count = 472)
v -25.28 -26.56 0
v -25.6 -26.56 0
v -25.6 -26.24 0
v -25.28 -26.24 0
v -25.6 -26.56 0
v -25.92 -26.56 0
v -25.92 -26.24 0
v -25.6 -26.24 0
v -21.44 -26.88 0
v -21.76 -26.88 0
v -21.76 -26.56 0
v -21.44 -26.56 0
v -21.76 -26.88 0
v -22.08 -26.88 0
v -22.08 -26.56 0
v -21.76 -26.56 0
v -23.04 -26.88 0
v -23.36 -26.88 0
v -23.36 -26.56 0
v -23.04 -26.56 0
v -23.36 -26.88 0
v -23.68 -26.88 0
v -23.68 -26.56 0
v -23.36 -26.56 0
v -24.64 -26.88 0
v -24.96 -26.88 0
v -24.96 -26.56 0
v -24.64 -26.56 0
v -24.96 -26.88 0
v -25.28 -26.88 0
v -25.28 -26.56 0
v -24.96 -26.56 0
v -25.28 -26.88 0
v -25.6 -26.88 0
v -25.6 -26.56 0
v -25.28 -26.56 0
v -25.6 -26.88 0
v -25.92 -26.88 0
v -25.92 -26.56 0
v -25.6 -26.56 0
v -21.44 -27.2 0
v -21.76 -27.2 0
v -21.76 -26.88 0
v -21.44 -26.88 0
v -21.76 -27.2 0
v -22.08 -27.2 0
v -22.08 -26.88 0
v -21.76 -26.88 0
v -23.04 -27.2 0
v -23.36 -27.2 0
v -23.36 -26.88 0
v -23.04 -26.88 0
v -23.36 -27.2 0
v -23.68 -27.2 0
v -23.68 -26.88 0
v -23.36 -26.88 0
v -23.68 -27.2 0
v -24 -27.2 0
v -24 -26.88 0
v -23.68 -26.88 0
v -24 -27.2 0
v -24.32 -27.2 0
v -24.32 -26.88 0
v -24 -26.88 0
v -24.64 -27.2 0
v -24.96 -27.2 0
v -24.96 -26.88 0
v -24.64 -26.88 0
v -24.96 -27.2 0
v -25.28 -27.2 0
v -25.28 -26.88 0
v -24.96 -26.88 0
v -25.28 -27.2 0
v -25.6 -27.2 0
v -25.6 -26.88 0
v -25.28 -26.88 0
v -25.6 -27.2 0
v -25.92 -27.2 0
v -25.92 -26.88 0
v -25.6 -26.88 0
v -21.44 -27.52 0
v -21.76 -27.52 0
v -21.76 -27.2 0
v -21.44 -27.2 0
v -21.76 -27.52 0
v -22.08 -27.52 0
v -22.08 -27.2 0
v -21.76 -27.2 0
v -22.72 -27.52 0
v -23.04 -27.52 0
v -23.04 -27.2 0
v -22.72 -27.2 0
v -23.04 -27.52 0
v -23.36 -27.52 0
v -23.36 -27.2 0
v -23.04 -27.2 0
v -23.68 -27.52 0
v -24 -27.52 0
v -24 -27.2 0
v -23.68 -27.2 0
v -24 -27.52 0
v -24.32 -27.52 0
v -24.32 -27.2 0
v -24 -27.2 0
v -24.64 -27.52 0
v -24.96 -27.52 0
v -24.96 -27.2 0
v -24.64 -27.2 0
v -24.96 -27.52 0
v -25.28 -27.52 0
v -25.28 -27.2 0
v -24.96 -27.2 0
v -25.28 -27.52 0
v -25.6 -27.52 0
v -25.6 -27.2 0
v -25.28 -27.2 0
v -25.6 -27.52 0
v -25.92 -27.52 0
v -25.92 -27.2 0
v -25.6 -27.2 0
v -21.44 -27.84 0
v -21.76 -27.84 0
v -21.76 -27.52 0
v -21.44 -27.52 0
v -21.76 -27.84 0
v -22.08 -27.84 0
v -22.08 -27.52 0
v -21.76 -27.52 0
v -22.72 -27.84 0
v -23.04 -27.84 0
v -23.04 -27.52 0
v -22.72 -27.52 0
v -23.04 -27.84 0
v -23.36 -27.84 0
v -23.36 -27.52 0
v -23.04 -27.52 0
v -24 -27.84 0
v -24.32 -27.84 0
v -24.32 -27.52 0
v -24 -27.52 0
v -24.32 -27.84 0
v -24.64 -27.84 0
v -24.64 -27.52 0
v -24.32 -27.52 0
v -24.64 -27.84 0
v -24.96 -27.84 0
v -24.96 -27.52 0
v -24.64 -27.52 0
v -24.96 -27.84 0
v -25.28 -27.84 0
v -25.28 -27.52 0
v -24.96 -27.52 0
v -21.44 -28.16 0
v -21.76 -28.16 0
v -21.76 -27.84 0
v -21.44 -27.84 0
v -21.76 -28.16 0
v -22.08 -28.16 0
v -22.08 -27.84 0
v -21.76 -27.84 0
v -22.08 -28.16 0
v -22.4 -28.16 0
v -22.4 -27.84 0
v -22.08 -27.84 0
v -22.4 -28.16 0
v -22.72 -28.16 0
v -22.72 -27.84 0
v -22.4 -27.84 0
v -22.72 -28.16 0
v -23.04 -28.16 0
v -23.04 -27.84 0
v -22.72 -27.84 0
v -24 -28.16 0
v -24.32 -28.16 0
v -24.32 -27.84 0
v -24 -27.84 0
v -24.32 -28.16 0
v -24.64 -28.16 0
v -24.64 -27.84 0
v -24.32 -27.84 0
v -21.44 -28.48 0
v -21.76 -28.48 0
v -21.76 -28.16 0
v -21.44 -28.16 0
v -21.76 -28.48 0
v -22.08 -28.48 0
v -22.08 -28.16 0
v -21.76 -28.16 0
v -22.08 -28.48 0
v -22.4 -28.48 0
v -22.4 -28.16 0
v -22.08 -28.16 0
v -22.4 -28.48 0
v -22.72 -28.48 0
v -22.72 -28.16 0
v -22.4 -28.16 0
v -22.72 -28.48 0
v -23.04 -28.48 0
v -23.04 -28.16 0
v -22.72 -28.16 0
v -23.04 -28.48 0
v -23.36 -28.48 0
v -23.36 -28.16 0
v -23.04 -28.16 0
v -24 -28.48 0
v -24.32 -28.48 0
v -24.32 -28.16 0
v -24 -28.16 0
v -24.32 -28.48 0
v -24.64 -28.48 0
v -24.64 -28.16 0
v -24.32 -28.16 0
v -24.64 -28.48 0
v -24.96 -28.48 0
v -24.96 -28.16 0
v -24.64 -28.16 0
v -24.96 -28.48 0
v -25.28 -28.48 0
v -25.28 -28.16 0
v -24.96 -28.16 0
v -25.6 -28.48 0
v -25.92 -28.48 0
v -25.92 -28.16 0
v -25.6 -28.16 0
v -25.92 -28.48 0
v -26.24 -28.48 0
v -26.24 -28.16 0
v -25.92 -28.16 0
v -26.24 -28.48 0
v -26.56 -28.48 0
v -26.56 -28.16 0
v -26.24 -28.16 0
v -21.12 -28.8 0
v -21.44 -28.8 0
v -21.44 -28.48 0
v -21.12 -28.48 0
v -21.44 -28.8 0
v -21.76 -28.8 0
v -21.76 -28.48 0
v -21.44 -28.48 0
v -21.76 -28.8 0
v -22.08 -28.8 0
v -22.08 -28.48 0
v -21.76 -28.48 0
v -22.08 -28.8 0
v -22.4 -28.8 0
v -22.4 -28.48 0
v -22.08 -28.48 0
v -22.72 -28.8 0
v -23.04 -28.8 0
v -23.04 -28.48 0
v -22.72 -28.48 0
v -23.04 -28.8 0
v -23.36 -28.8 0
v -23.36 -28.48 0
v -23.04 -28.48 0
v -24 -28.8 0
v -24.32 -28.8 0
v -24.32 -28.48 0
v -24 -28.48 0
v -24.32 -28.8 0
v -24.64 -28.8 0
v -24.64 -28.48 0
v -24.32 -28.48 0
v -24.64 -28.8 0
v -24.96 -28.8 0
v -24.96 -28.48 0
v -24.64 -28.48 0
v -24.96 -28.8 0
v -25.28 -28.8 0
v -25.28 -28.48 0
v -24.96 -28.48 0
v -25.6 -28.8 0
v -25.92 -28.8 0
v -25.92 -28.48 0
v -25.6 -28.48 0
v -25.92 -28.8 0
v -26.24 -28.8 0
v -26.24 -28.48 0
v -25.92 -28.48 0
v -26.24 -28.8 0
v -26.56 -28.8 0
v -26.56 -28.48 0
v -26.24 -28.48 0
v -21.44 -29.12 0
v -21.76 -29.12 0
v -21.76 -28.8 0
v -21.44 -28.8 0
v -21.76 -29.12 0
v -22.08 -29.12 0
v -22.08 -28.8 0
v -21.76 -28.8 0
v -22.08 -29.12 0
v -22.4 -29.12 0
v -22.4 -28.8 0
v -22.08 -28.8 0
v -22.4 -29.12 0
v -22.72 -29.12 0
v -22.72 -28.8 0
v -22.4 -28.8 0
v -23.36 -29.12 0
v -23.68 -29.12 0
v -23.68 -28.8 0
v -23.36 -28.8 0
v -23.68 -29.12 0
v -24 -29.12 0
v -24 -28.8 0
v -23.68 -28.8 0
v -24.64 -29.12 0
v -24.96 -29.12 0
v -24.96 -28.8 0
v -24.64 -28.8 0
v -24.96 -29.12 0
v -25.28 -29.12 0
v -25.28 -28.8 0
v -24.96 -28.8 0
v -25.6 -29.12 0
v -25.92 -29.12 0
v -25.92 -28.8 0
v -25.6 -28.8 0
v -25.92 -29.12 0
v -26.24 -29.12 0
v -26.24 -28.8 0
v -25.92 -28.8 0
v -22.08 -29.44 0
v -22.4 -29.44 0
v -22.4 -29.12 0
v -22.08 -29.12 0
v -22.72 -29.44 0
v -23.04 -29.44 0
v -23.04 -29.12 0
v -22.72 -29.12 0
v -23.36 -29.44 0
v -23.68 -29.44 0
v -23.68 -29.12 0
v -23.36 -29.12 0
v -23.68 -29.44 0
v -24 -29.44 0
v -24 -29.12 0
v -23.68 -29.12 0
v -24 -29.44 0
v -24.32 -29.44 0
v -24.32 -29.12 0
v -24 -29.12 0
v -24.32 -29.44 0
v -24.64 -29.44 0
v -24.64 -29.12 0
v -24.32 -29.12 0
v -24.64 -29.44 0
v -24.96 -29.44 0
v -24.96 -29.12 0
v -24.64 -29.12 0
v -24.96 -29.44 0
v -25.28 -29.44 0
v -25.28 -29.12 0
v -24.96 -29.12 0
v -25.28 -29.44 0
v -25.6 -29.44 0
v -25.6 -29.12 0
v -25.28 -29.12 0
v -25.6 -29.44 0
v -25.92 -29.44 0
v -25.92 -29.12 0
v -25.6 -29.12 0
v -25.92 -29.44 0
v -26.24 -29.44 0
v -26.24 -29.12 0
v -25.92 -29.12 0
v -22.4 -29.76 0
v -22.72 -29.76 0
v -22.72 -29.44 0
v -22.4 -29.44 0
v -22.72 -29.76 0
v -23.04 -29.76 0
v -23.04 -29.44 0
v -22.72 -29.44 0
v -23.04 -29.76 0
v -23.36 -29.76 0
v -23.36 -29.44 0
v -23.04 -29.44 0
v -24 -29.76 0
v -24.32 -29.76 0
v -24.32 -29.44 0
v -24 -29.44 0
v -24.32 -29.76 0
v -24.64 -29.76 0
v -24.64 -29.44 0
v -24.32 -29.44 0
v -24.96 -29.76 0
v -25.28 -29.76 0
v -25.28 -29.44 0
v -24.96 -29.44 0
v -25.28 -29.76 0
v -25.6 -29.76 0
v -25.6 -29.44 0
v -25.28 -29.44 0
v -25.6 -29.76 0
v -25.92 -29.76 0
v -25.92 -29.44 0
v -25.6 -29.44 0
v -25.92 -29.76 0
v -26.24 -29.76 0
v -26.24 -29.44 0
v -25.92 -29.44 0
v -22.72 -30.08 0
v -23.04 -30.08 0
v -23.04 -29.76 0
v -22.72 -29.76 0
v -25.28 -30.08 0
v -25.6 -30.08 0
v -25.6 -29.76 0
v -25.28 -29.76 0
v -21.76 -32 0
v -22.08 -32 0
v -22.08 -31.68 0
v -21.76 -31.68 0
v -22.08 -32 0
v -22.4 -32 0
v -22.4 -31.68 0
v -22.08 -31.68 0
v -22.4 -32 0
v -22.72 -32 0
v -22.72 -31.68 0
v -22.4 -31.68 0
v -22.72 -32 0
v -23.04 -32 0
v -23.04 -31.68 0
v -22.72 -31.68 0
v -21.76 -32.32 0
v -22.08 -32.32 0
v -22.08 -32 0
v -21.76 -32 0
v -22.08 -32.32 0
v -22.4 -32.32 0
v -22.4 -32 0
v -22.08 -32 0
v -22.4 -32.32 0
v -22.72 -32.32 0
v -22.72 -32 0
v -22.4 -32 0
v -22.72 -32.32 0
v -23.04 -32.32 0
v -23.04 -32 0
v -22.72 -32 0
v -21.76 -32.64 0
v -22.08 -32.64 0
v -22.08 -32.32 0
v -21.76 -32.32 0
v -22.08 -32.64 0
v -22.4 -32.64 0
v -22.4 -32.32 0
v -22.08 -32.32 0
v -22.4 -32.64 0
v -22.72 -32.64 0
v -22.72 -32.32 0
v -22.4 -32.32 0
v -22.72 -32.64 0
v -23.04 -32.64 0
v -23.04 -32.32 0
v -22.72 -32.32 0
v -22.08 -32.96 0
v -22.4 -32.96 0
v -22.4 -32.64 0
v -22.08 -32.64 0
v -22.4 -32.96 0
v -22.72 -32.96 0
v -22.72 -32.64 0
v -22.4 -32.64 0
v -22.72 -32.96 0
v -23.04 -32.96 0
v -23.04 -32.64 0
v -22.72 -32.64 0

# Texture cooridinates (Count = 39)
vt 0.9 0.4545454
vt 0.95 0.4545454
vt 0.95 0.5454545
vt 0.9 0.5454545
vt 1 0.4545454
vt 1 0.5454545
vt 0.9 0.3636364
vt 0.95 0.3636364
vt 1 0.3636364
vt 0.85 0.1818182
vt 0.9 0.1818182
vt 0.9 0.2727273
vt 0.85 0.2727273
vt 0.8 0.09090906
vt 0.85 0.09090906
vt 0.8 0.1818182
vt 0.9 0.09090906
vt 0.95 0.09090906
vt 0.95 0.1818182
vt 0.85 0
vt 0.9 0
vt 0.3 0.1818182
vt 0.35 0.1818182
vt 0.35 0.2727273
vt 0.3 0.2727273
vt 0.4 0.1818182
vt 0.4 0.2727273
vt 0.45 0.1818182
vt 0.45 0.2727273
vt 0.3 0.09090906
vt 0.35 0.09090906
vt 0.4 0.09090906
vt 0.45 0.09090906
vt 0.3 0
vt 0.35 0
vt 0.35 0.3636364
vt 0.3 0.3636364
vt 0.4 0
vt 0.45 0

# Normal
vn 0 0 -1

# Mesh description
g Jungle2_mesh_0008

# Faces
f 1/1/1 2/2/1 3/3/1 4/4/1
f 5/2/1 6/5/1 7/6/1 8/3/1
f 9/1/1 10/2/1 11/3/1 12/4/1
f 13/2/1 14/5/1 15/6/1 16/3/1
f 17/1/1 18/2/1 19/3/1 20/4/1
f 21/2/1 22/5/1 23/6/1 24/3/1
f 25/1/1 26/2/1 27/3/1 28/4/1
f 29/2/1 30/5/1 31/6/1 32/3/1
f 33/7/1 34/8/1 35/2/1 36/1/1
f 37/8/1 38/9/1 39/5/1 40/2/1
f 41/1/1 42/2/1 43/3/1 44/4/1
f 45/2/1 46/5/1 47/6/1 48/3/1
f 49/7/1 50/8/1 51/2/1 52/1/1
f 53/8/1 54/9/1 55/5/1 56/2/1
f 57/1/1 58/2/1 59/3/1 60/4/1
f 61/2/1 62/5/1 63/6/1 64/3/1
f 65/7/1 66/8/1 67/2/1 68/1/1
f 69/8/1 70/9/1 71/5/1 72/2/1
f 73/1/1 74/2/1 75/3/1 76/4/1
f 77/2/1 78/5/1 79/6/1 80/3/1
f 81/7/1 82/8/1 83/2/1 84/1/1
f 85/8/1 86/9/1 87/5/1 88/2/1
f 89/1/1 90/2/1 91/3/1 92/4/1
f 93/2/1 94/5/1 95/6/1 96/3/1
f 97/7/1 98/8/1 99/2/1 100/1/1
f 101/8/1 102/9/1 103/5/1 104/2/1
f 105/1/1 106/2/1 107/3/1 108/4/1
f 109/2/1 110/5/1 111/6/1 112/3/1
f 113/7/1 114/8/1 115/2/1 116/1/1
f 117/8/1 118/9/1 119/5/1 120/2/1
f 121/1/1 122/2/1 123/3/1 124/4/1
f 125/2/1 126/5/1 127/6/1 128/3/1
f 129/7/1 130/8/1 131/2/1 132/1/1
f 133/8/1 134/9/1 135/5/1 136/2/1
f 137/1/1 138/2/1 139/3/1 140/4/1
f 141/2/1 142/5/1 143/6/1 144/3/1
f 145/7/1 146/8/1 147/2/1 148/1/1
f 149/8/1 150/9/1 151/5/1 152/2/1
f 153/7/1 154/8/1 155/2/1 156/1/1
f 157/8/1 158/9/1 159/5/1 160/2/1
f 161/2/1 162/5/1 163/6/1 164/3/1
f 165/1/1 166/2/1 167/3/1 168/4/1
f 169/2/1 170/5/1 171/6/1 172/3/1
f 173/7/1 174/8/1 175/2/1 176/1/1
f 177/8/1 178/9/1 179/5/1 180/2/1
f 181/10/1 182/11/1 183/12/1 184/13/1
f 185/7/1 186/8/1 187/2/1 188/1/1
f 189/8/1 190/9/1 191/5/1 192/2/1
f 193/7/1 194/8/1 195/2/1 196/1/1
f 197/8/1 198/9/1 199/5/1 200/2/1
f 201/2/1 202/5/1 203/6/1 204/3/1
f 205/1/1 206/2/1 207/3/1 208/4/1
f 209/2/1 210/5/1 211/6/1 212/3/1
f 213/1/1 214/2/1 215/3/1 216/4/1
f 217/2/1 218/5/1 219/6/1 220/3/1
f 221/1/1 222/2/1 223/3/1 224/4/1
f 225/1/1 226/2/1 227/3/1 228/4/1
f 229/2/1 230/5/1 231/6/1 232/3/1
f 233/14/1 234/15/1 235/10/1 236/16/1
f 237/15/1 238/17/1 239/11/1 240/10/1
f 241/17/1 242/18/1 243/19/1 244/11/1
f 245/10/1 246/11/1 247/12/1 248/13/1
f 249/7/1 250/8/1 251/2/1 252/1/1
f 253/8/1 254/9/1 255/5/1 256/2/1
f 257/7/1 258/8/1 259/2/1 260/1/1
f 261/8/1 262/9/1 263/5/1 264/2/1
f 265/7/1 266/8/1 267/2/1 268/1/1
f 269/8/1 270/9/1 271/5/1 272/2/1
f 273/7/1 274/8/1 275/2/1 276/1/1
f 277/7/1 278/8/1 279/2/1 280/1/1
f 281/8/1 282/9/1 283/5/1 284/2/1
f 285/20/1 286/21/1 287/17/1 288/15/1
f 289/14/1 290/15/1 291/10/1 292/16/1
f 293/15/1 294/17/1 295/11/1 296/10/1
f 297/17/1 298/18/1 299/19/1 300/11/1
f 301/1/1 302/2/1 303/3/1 304/4/1
f 305/2/1 306/5/1 307/6/1 308/3/1
f 309/1/1 310/2/1 311/3/1 312/4/1
f 313/2/1 314/5/1 315/6/1 316/3/1
f 317/1/1 318/2/1 319/3/1 320/4/1
f 321/2/1 322/5/1 323/6/1 324/3/1
f 325/20/1 326/21/1 327/17/1 328/15/1
f 329/10/1 330/11/1 331/12/1 332/13/1
f 333/7/1 334/8/1 335/2/1 336/1/1
f 337/8/1 338/9/1 339/5/1 340/2/1
f 341/1/1 342/2/1 343/3/1 344/4/1
f 345/2/1 346/5/1 347/6/1 348/3/1
f 349/7/1 350/8/1 351/2/1 352/1/1
f 353/8/1 354/9/1 355/5/1 356/2/1
f 357/10/1 358/11/1 359/12/1 360/13/1
f 361/1/1 362/2/1 363/3/1 364/4/1
f 365/2/1 366/5/1 367/6/1 368/3/1
f 369/14/1 370/15/1 371/10/1 372/16/1
f 373/15/1 374/17/1 375/11/1 376/10/1
f 377/17/1 378/18/1 379/19/1 380/11/1
f 381/7/1 382/8/1 383/2/1 384/1/1
f 385/8/1 386/9/1 387/5/1 388/2/1
f 389/14/1 390/15/1 391/10/1 392/16/1
f 393/15/1 394/17/1 395/11/1 396/10/1
f 397/7/1 398/8/1 399/2/1 400/1/1
f 401/8/1 402/9/1 403/5/1 404/2/1
f 405/20/1 406/21/1 407/17/1 408/15/1
f 409/20/1 410/21/1 411/17/1 412/15/1
f 413/22/1 414/23/1 415/24/1 416/25/1
f 417/23/1 418/26/1 419/27/1 420/24/1
f 421/23/1 422/26/1 423/27/1 424/24/1
f 425/26/1 426/28/1 427/29/1 428/27/1
f 429/30/1 430/31/1 431/23/1 432/22/1
f 433/31/1 434/32/1 435/26/1 436/23/1
f 437/31/1 438/32/1 439/26/1 440/23/1
f 441/32/1 442/33/1 443/28/1 444/26/1
f 445/34/1 446/35/1 447/31/1 448/30/1
f 449/25/1 450/24/1 451/36/1 452/37/1
f 453/31/1 454/32/1 455/26/1 456/23/1
f 457/32/1 458/33/1 459/28/1 460/26/1
f 461/34/1 462/35/1 463/31/1 464/30/1
f 465/35/1 466/38/1 467/32/1 468/31/1
f 469/38/1 470/39/1 471/33/1 472/32/1

